<?xml version="1.0" standalone="no"?>
<!DOCTYPE svg PUBLIC "-//W3C//DTD SVG 20010904//EN"
 "http://www.w3.org/TR/2001/REC-SVG-20010904/DTD/svg10.dtd">
<svg version="1.0" xmlns="http://www.w3.org/2000/svg"
 width="677.000000pt" height="1280.000000pt" viewBox="0 0 677.000000 1280.000000"
 preserveAspectRatio="xMidYMid meet">
<g transform="translate(0.000000,1280.000000) scale(0.100000,-0.100000)"
fill="#000000" stroke="none">
<path d="M608 12783 c-27 -31 -54 -95 -92 -218 -43 -137 -92 -248 -109 -242
-6 2 -21 44 -33 94 -12 50 -31 110 -41 134 -11 24 -25 65 -32 90 -18 64 -79
143 -114 147 -45 5 -54 -31 -33 -129 19 -87 62 -226 95 -302 12 -27 21 -60 21
-75 0 -14 -24 -78 -54 -141 -63 -135 -86 -231 -86 -363 0 -82 3 -99 26 -138
43 -76 79 -303 124 -795 44 -476 86 -714 173 -970 78 -228 121 -312 201 -395
70 -72 91 -108 142 -243 61 -161 140 -288 302 -491 l103 -128 -7 -229 c-7
-214 -6 -229 10 -229 29 0 176 -81 238 -130 86 -70 131 -130 223 -300 135
-248 162 -316 180 -454 27 -208 62 -313 130 -394 18 -21 24 -38 20 -52 -12
-39 16 -255 69 -523 30 -149 69 -352 87 -450 l33 -177 -28 -58 c-41 -84 -151
-237 -196 -273 -45 -36 -52 -71 -25 -123 14 -27 14 -30 -15 -59 -42 -43 -72
-109 -72 -162 -1 -36 -4 -45 -16 -40 -81 31 -137 31 -362 -3 -74 -11 -189 -28
-255 -37 -330 -45 -432 -102 -520 -288 -24 -51 -54 -138 -68 -194 -21 -89 -31
-111 -77 -173 -65 -88 -116 -130 -208 -173 -64 -29 -77 -41 -124 -106 -29 -41
-59 -82 -67 -93 -12 -16 -11 -21 4 -38 25 -27 16 -83 -30 -178 l-36 -77 20
-17 c12 -9 27 -18 33 -20 9 -3 8 -19 -6 -59 -38 -116 -31 -345 15 -496 l20
-65 -49 -176 c-103 -362 -127 -500 -118 -652 16 -271 24 -337 47 -381 35 -70
77 -127 152 -206 l70 -74 -12 -92 c-6 -51 -35 -180 -63 -287 -49 -186 -51
-201 -52 -330 -1 -193 35 -369 102 -500 42 -80 78 -96 186 -81 116 16 208 63
309 160 85 80 169 187 206 260 49 95 67 284 37 396 -41 160 -31 213 56 289
107 93 158 208 177 395 12 114 10 125 -49 216 -54 83 -58 105 -27 157 20 35
27 68 37 173 26 266 29 233 -35 340 -52 86 -57 99 -57 153 0 78 49 250 73 257
11 4 31 39 51 88 18 44 51 122 73 172 50 112 60 115 165 48 l75 -48 100 2 c81
1 182 18 525 87 524 105 572 113 740 126 217 18 344 -1 490 -74 49 -24 185
-107 304 -185 287 -189 356 -221 696 -321 391 -115 410 -121 423 -149 9 -19
25 -29 59 -38 26 -6 52 -14 58 -18 18 -11 11 -44 -14 -61 -45 -29 -112 -280
-102 -375 6 -53 5 -58 -19 -77 -29 -23 -53 -19 -150 23 -31 14 -74 25 -98 25
-82 0 -201 -50 -235 -97 -61 -88 -93 -282 -75 -455 9 -88 17 -118 57 -207 82
-181 81 -232 -6 -360 -27 -40 -56 -88 -64 -107 -43 -102 18 -528 105 -734 71
-167 147 -224 301 -224 98 0 146 19 199 80 57 65 89 162 135 414 38 206 114
506 141 561 31 60 47 69 130 69 62 0 67 2 108 39 92 85 280 366 486 726 176
306 222 378 278 431 62 59 63 65 32 204 -23 108 -22 129 22 332 16 75 29 159
29 188 0 45 -4 55 -39 93 -55 61 -61 77 -61 167 0 46 -6 95 -14 114 -8 18 -60
84 -116 146 -101 113 -130 160 -130 207 0 14 12 59 26 100 38 111 37 139 -10
179 -58 50 -210 124 -411 199 -222 83 -340 137 -353 161 -22 42 -103 367 -118
474 -27 193 -41 210 -187 217 -114 6 -155 27 -225 115 -70 89 -75 102 -79 201
-2 55 -10 101 -20 120 -12 25 -14 48 -9 121 5 60 3 105 -6 139 -11 43 -10 54
6 95 10 26 27 72 38 102 l21 55 -23 150 c-22 148 -22 152 -6 305 49 452 125
821 193 940 73 126 190 248 363 377 74 55 146 114 160 132 23 29 31 33 90 38
109 9 104 -2 96 197 -4 94 -9 200 -11 236 l-5 65 92 77 c114 95 330 298 461
434 54 56 122 121 153 145 68 54 88 86 108 169 8 36 54 164 101 285 180 454
328 943 400 1315 43 223 56 278 84 352 52 140 6 447 -92 618 -29 51 -31 62
-29 140 0 48 8 104 17 130 9 25 19 73 22 108 5 51 3 66 -12 82 -21 23 -48 26
-63 8 -13 -17 -80 -251 -88 -311 -4 -26 -10 -47 -14 -47 -20 0 -50 119 -50
200 0 55 7 81 45 169 25 57 45 111 45 120 -1 21 -19 45 -48 60 -39 21 -74 -27
-142 -194 -18 -44 -37 -84 -41 -89 -20 -22 -6 65 22 144 51 140 50 150 -18
150 -24 0 -38 -8 -62 -37 -18 -21 -37 -53 -43 -70 -7 -18 -15 -33 -18 -33 -3
0 -10 15 -15 33 -8 25 -16 33 -38 35 -37 4 -62 -18 -97 -88 -64 -128 -84 -244
-56 -312 6 -13 3 -15 -12 -11 -28 7 -62 -14 -62 -38 0 -11 18 -39 40 -63 43
-47 56 -77 101 -234 43 -153 62 -186 162 -282 92 -88 117 -123 117 -162 0 -50
-110 -363 -211 -604 -128 -302 -461 -939 -602 -1148 -58 -88 -255 -286 -281
-284 -12 1 -41 -12 -66 -29 -82 -55 -443 -266 -538 -314 -69 -35 -111 -49
-157 -54 -73 -8 -119 -33 -143 -76 -15 -28 -20 -30 -55 -24 -26 4 -60 -2 -112
-20 -91 -30 -95 -30 -95 -5 0 34 -27 34 -102 1 -39 -17 -75 -31 -79 -31 -15 0
-10 45 22 177 38 161 41 222 12 288 -12 28 -27 81 -33 117 -10 56 -20 79 -66
140 -30 40 -50 74 -44 76 5 2 10 7 10 12 0 12 -129 115 -180 144 -32 18 -45
32 -45 47 0 19 -11 26 -62 43 -44 14 -63 25 -65 38 -3 17 -10 15 -77 -18 -73
-36 -76 -36 -145 -28 -249 31 -437 -29 -601 -191 -84 -83 -119 -132 -190 -269
-29 -55 -63 -119 -75 -141 l-23 -41 24 -37 c13 -20 29 -35 36 -33 8 3 14 -14
19 -50 4 -33 11 -54 19 -54 8 0 16 -32 25 -91 9 -67 15 -89 25 -85 8 3 18 -8
26 -26 11 -26 10 -32 -5 -40 -33 -18 -36 -77 -10 -160 10 -33 -21 -19 -86 37
-36 31 -86 67 -111 80 -26 13 -62 43 -80 66 -19 25 -81 73 -148 117 -63 41
-129 89 -146 108 -18 19 -40 34 -48 34 -9 0 -33 17 -55 38 -21 20 -51 44 -68
53 -18 9 -41 37 -59 71 -15 30 -41 62 -55 70 -15 9 -49 52 -76 97 -27 44 -53
81 -59 81 -11 0 -139 152 -203 239 -53 73 -72 117 -104 240 -56 224 -60 233
-294 711 -95 195 -185 390 -199 432 -39 120 -125 474 -125 515 1 53 22 86 126
205 50 57 104 123 120 147 l28 43 -2 256 c-1 207 -5 266 -18 306 -13 37 -15
68 -10 127 6 71 4 81 -14 99 -26 26 -66 26 -80 0 -6 -12 -17 -60 -25 -108 -8
-48 -21 -107 -30 -132 -17 -52 -14 -23 9 85 37 168 4 306 -56 238z"/>
</g>
</svg>
