<?xml version="1.0" standalone="no"?>
<!DOCTYPE svg PUBLIC "-//W3C//DTD SVG 20010904//EN"
 "http://www.w3.org/TR/2001/REC-SVG-20010904/DTD/svg10.dtd">
<svg version="1.0" xmlns="http://www.w3.org/2000/svg"
 width="1273.000000pt" height="1280.000000pt" viewBox="0 0 1273.000000 1280.000000"
 preserveAspectRatio="xMidYMid meet">
<g transform="translate(0.000000,1280.000000) scale(0.100000,-0.100000)"
fill="#000000" stroke="none">
<path d="M6026 12785 c-174 -62 -187 -311 -21 -398 17 -9 24 -16 17 -17 -25 0
-101 -82 -118 -126 -64 -168 100 -340 271 -284 71 24 145 112 145 175 0 15 5
35 11 46 8 16 7 25 -4 37 -23 28 -27 50 -10 56 14 6 13 10 -7 31 -13 13 -26
22 -31 20 -4 -3 -29 8 -55 25 -26 16 -43 30 -36 30 22 0 95 74 113 115 48 105
1 232 -105 281 -57 27 -112 30 -170 9z"/>
<path d="M6505 12736 c-59 -27 -77 -46 -104 -106 -85 -187 114 -373 299 -280
87 44 130 140 109 241 -9 39 -22 62 -58 99 -71 73 -155 89 -246 46z"/>
<path d="M5569 12706 c-121 -43 -182 -178 -130 -291 25 -56 78 -103 131 -119
l45 -13 -56 -5 c-181 -15 -273 -222 -157 -354 105 -120 290 -98 361 41 55 110
3 250 -112 298 l-33 14 42 7 c117 19 192 102 193 215 1 150 -145 257 -284 207z"/>
<path d="M6993 12699 c-165 -81 -164 -306 1 -391 60 -31 161 -23 218 17 56 40
91 108 90 177 -1 66 -12 96 -54 143 -64 74 -171 96 -255 54z"/>
<path d="M5097 12607 c-90 -29 -150 -112 -150 -207 0 -124 91 -214 219 -215
50 0 69 5 109 30 62 38 105 114 105 185 0 142 -148 251 -283 207z"/>
<path d="M7475 12571 c-169 -78 -165 -324 7 -395 105 -44 242 10 285 113 18
43 18 129 0 172 -18 45 -70 96 -114 114 -48 20 -130 18 -178 -4z"/>
<path d="M8050 12511 c-103 -32 -163 -109 -163 -211 0 -54 18 -104 52 -144 15
-18 15 -19 -2 -13 -108 40 -227 -6 -278 -106 -28 -54 -28 -140 -1 -193 82
-160 307 -160 387 -1 34 69 33 128 -3 199 l-27 55 37 -10 c130 -33 268 77 268
213 0 137 -144 249 -270 211z"/>
<path d="M4655 12489 c-70 -20 -144 -113 -145 -181 0 -16 -2 -28 -4 -28 -2 0
-19 15 -38 33 -122 115 -336 41 -362 -124 l-7 -42 -32 33 c-84 87 -212 93
-304 16 -42 -35 -76 -117 -71 -172 2 -24 3 -44 2 -44 -1 0 -21 7 -44 15 -146
52 -291 -49 -291 -201 0 -187 211 -287 351 -167 53 46 79 102 80 171 0 52 0
52 23 41 34 -19 95 -27 132 -19 28 6 37 4 56 -16 l23 -24 -31 -33 c-52 -54
-66 -92 -61 -168 3 -56 9 -76 34 -111 66 -95 193 -122 289 -63 126 78 140 261
28 354 -27 22 -32 31 -21 37 7 5 24 22 38 38 l25 28 -52 -26 c-43 -22 -66 -26
-130 -26 -43 1 -91 7 -107 13 l-30 13 32 23 c38 27 77 92 86 144 l7 37 27 -31
c59 -70 182 -92 264 -47 57 31 105 96 114 153 6 43 7 45 21 26 8 -12 34 -33
60 -47 101 -60 229 -26 291 76 104 174 -57 377 -253 319z"/>
<path d="M6260 12385 c-13 -16 -6 -35 15 -35 18 0 26 15 19 34 -8 20 -18 20
-34 1z"/>
<path d="M8715 12296 c-18 -13 -18 -14 3 -25 29 -16 32 -14 32 14 0 28 -8 31
-35 11z"/>
<path d="M6538 12288 c-81 -21 -158 -123 -158 -207 0 -113 108 -221 220 -221
55 0 106 23 151 69 89 89 92 205 7 297 -29 31 -55 48 -91 59 -57 17 -76 17
-129 3z"/>
<path d="M8495 12290 c-49 -15 -112 -75 -130 -125 -12 -30 -16 -63 -13 -104
15 -211 300 -269 402 -82 14 27 26 61 26 76 0 14 4 34 9 44 7 12 4 26 -9 46
-14 21 -16 32 -7 45 8 14 7 22 -6 35 -9 9 -21 14 -26 10 -6 -3 -30 9 -54 26
-34 24 -57 31 -103 34 -32 3 -73 0 -89 -5z"/>
<path d="M6980 12252 c-52 -20 -104 -82 -121 -144 -22 -85 14 -180 89 -232 35
-25 55 -31 111 -34 49 -3 77 0 99 12 41 21 43 21 30 -15 -28 -81 19 -199 98
-245 93 -54 191 -41 265 35 85 88 87 210 5 299 -55 62 -173 85 -246 49 -40
-20 -44 -18 -30 17 34 89 -25 217 -117 257 -55 23 -123 24 -183 1z"/>
<path d="M8985 12111 c-91 -23 -152 -89 -170 -183 -10 -55 17 -136 59 -177 35
-34 35 -35 14 -49 -20 -15 -20 -16 -3 -29 27 -19 35 -16 35 11 0 25 0 25 37 9
120 -50 275 46 290 180 17 144 -125 272 -262 238z"/>
<path d="M4960 12078 c-55 -29 -106 -101 -115 -161 -14 -89 38 -187 120 -227
66 -32 158 -26 217 16 53 36 98 119 98 179 0 60 -45 143 -98 180 -61 42 -157
47 -222 13z"/>
<path d="M3142 11944 c-23 -16 -30 -44 -12 -44 6 0 13 7 16 15 7 16 39 21 48
6 3 -4 -3 -16 -14 -26 -18 -17 -28 -55 -14 -55 7 0 40 38 54 62 8 13 6 22 -10
38 -24 24 -38 25 -68 4z"/>
<path d="M6272 11934 c-23 -16 -30 -44 -12 -44 6 0 13 7 16 15 7 16 39 21 48
6 3 -4 -3 -19 -14 -31 -20 -23 -27 -50 -12 -50 7 0 37 35 56 67 8 14 -27 53
-47 53 -7 0 -23 -7 -35 -16z"/>
<path d="M5795 11901 c-49 -22 -99 -77 -115 -126 -7 -21 -10 -63 -8 -95 15
-210 300 -267 402 -81 49 91 28 205 -50 269 -65 54 -155 67 -229 33z"/>
<path d="M3026 11894 c-18 -17 -22 -54 -6 -54 6 0 15 11 20 25 5 14 14 25 20
25 17 0 23 -27 10 -49 -7 -14 -8 -27 -1 -38 8 -14 12 -11 25 21 9 21 16 44 16
50 0 35 -57 48 -84 20z"/>
<path d="M3260 11893 c-15 -11 -18 -19 -11 -26 7 -7 15 -6 25 3 17 13 46 7 46
-9 0 -6 -13 -17 -30 -26 -16 -9 -30 -22 -30 -30 0 -20 4 -19 50 10 53 33 52
63 -1 84 -20 7 -32 6 -49 -6z"/>
<path d="M4569 11896 c-59 -21 -96 -53 -123 -108 -44 -88 -29 -184 40 -251
138 -137 367 -41 367 153 0 149 -146 255 -284 206z"/>
<path d="M9410 11895 c-184 -58 -201 -320 -26 -401 206 -96 399 140 265 325
-52 72 -152 104 -239 76z"/>
<path d="M6157 11882 c-19 -21 -23 -52 -7 -52 6 0 15 11 20 25 5 14 14 25 20
25 17 0 23 -26 11 -48 -11 -20 -6 -52 8 -52 4 0 13 20 20 45 11 36 11 48 1 60
-17 21 -53 19 -73 -3z"/>
<path d="M8205 11889 c-45 -13 -100 -63 -124 -112 -60 -124 10 -271 146 -306
131 -35 263 70 263 208 -1 154 -136 254 -285 210z"/>
<path d="M6381 11876 c-16 -19 5 -32 24 -16 16 13 45 7 45 -9 0 -6 -13 -17
-30 -26 -16 -9 -30 -22 -30 -30 0 -20 4 -19 50 10 22 14 40 31 40 39 0 37 -75
61 -99 32z"/>
<path d="M3160 11815 c0 -9 5 -15 11 -13 6 2 11 8 11 13 0 5 -5 11 -11 13 -6
2 -11 -4 -11 -13z"/>
<path d="M6296 11813 c-11 -11 -6 -23 9 -23 8 0 15 4 15 9 0 13 -16 22 -24 14z"/>
<path d="M5319 11787 c-54 -28 -104 -99 -113 -159 -18 -123 88 -248 211 -248
65 0 113 20 157 63 107 108 80 278 -56 348 -53 27 -142 26 -199 -4z"/>
<path d="M6705 11781 c-58 -26 -103 -77 -120 -136 -42 -140 59 -275 207 -275
186 0 285 210 167 354 -59 71 -169 96 -254 57z"/>
<path d="M3086 11783 c-11 -11 -6 -23 9 -23 8 0 15 4 15 9 0 13 -16 22 -24 14z"/>
<path d="M3247 11774 c-8 -8 1 -24 14 -24 5 0 9 7 9 15 0 15 -12 20 -23 9z"/>
<path d="M6212 11759 c2 -6 8 -10 13 -10 5 0 11 4 13 10 2 6 -4 11 -13 11 -9
0 -15 -5 -13 -11z"/>
<path d="M6377 11764 c-8 -8 1 -24 14 -24 5 0 9 7 9 15 0 15 -12 20 -23 9z"/>
<path d="M3075 11733 c-80 -42 -125 -113 -125 -198 0 -121 94 -215 215 -215
228 0 297 306 93 411 -46 24 -140 25 -183 2z"/>
<path d="M6205 11721 c-143 -66 -169 -255 -49 -360 47 -42 73 -51 140 -51 233
0 297 325 82 414 -50 21 -124 20 -173 -3z"/>
<path d="M8656 11686 c-199 -74 -174 -378 35 -416 97 -18 207 40 242 127 20
51 32 143 19 143 -15 0 -20 32 -8 51 11 19 -14 52 -36 47 -7 -1 -32 10 -55 26
-51 34 -138 44 -197 22z"/>
<path d="M7709 11664 c-31 -9 -60 -28 -87 -58 -86 -93 -81 -223 12 -309 l36
-32 -49 -1 c-63 -1 -132 -41 -169 -96 -38 -58 -43 -165 -10 -222 32 -54 85
-94 145 -108 l51 -12 -29 -36 c-71 -88 -63 -217 17 -292 92 -86 253 -75 324
24 58 80 60 177 4 259 -29 43 -109 89 -154 89 l-32 0 28 33 c15 17 33 46 41
64 31 75 5 185 -58 244 l-31 29 28 0 c98 0 193 76 214 172 25 113 -43 226
-155 257 -50 14 -69 13 -126 -5z"/>
<path d="M10014 11605 c-16 -13 -17 -16 -4 -25 25 -17 40 -11 40 15 0 29 -8
31 -36 10z"/>
<path d="M9792 11597 c-88 -34 -146 -116 -146 -207 2 -187 219 -285 357 -161
48 43 66 77 77 148 8 44 6 60 -7 79 -12 20 -13 27 -3 39 10 13 9 19 -5 35 -10
11 -23 19 -29 18 -6 -1 -32 10 -58 25 -55 33 -136 43 -186 24z"/>
<path d="M2521 11573 c7 -10 22 -28 33 -41 l20 -22 -22 -16 c-41 -29 -75 -101
-76 -163 -1 -83 34 -146 104 -188 218 -132 442 149 266 332 l-42 45 33 32 c18
17 31 33 29 35 -2 2 -27 -8 -57 -22 -74 -34 -163 -34 -237 0 -64 30 -68 30
-51 8z"/>
<path d="M7102 11525 c-60 -26 -94 -57 -118 -109 -42 -90 -27 -176 44 -249
133 -136 365 -39 365 153 0 152 -157 263 -291 205z"/>
<path d="M3576 11508 c-56 -15 -131 -91 -146 -148 -44 -166 103 -315 269 -270
65 17 128 80 147 147 48 165 -103 317 -270 271z"/>
<path d="M9192 11511 c-130 -33 -202 -193 -139 -311 82 -155 296 -157 385 -5
33 58 28 164 -10 223 -48 72 -152 113 -236 93z"/>
<path d="M5000 11487 c-19 -6 -53 -29 -75 -52 -139 -138 -41 -367 156 -367
182 0 280 214 162 352 -62 72 -150 96 -243 67z"/>
<path d="M5635 11449 c-79 -23 -145 -117 -145 -205 1 -171 188 -275 335 -184
l37 23 -18 -34 c-24 -48 -23 -133 4 -186 45 -87 142 -135 233 -116 l48 9 -39
-33 c-76 -65 -93 -196 -37 -282 63 -95 197 -125 293 -65 70 43 107 117 102
201 -5 83 -42 137 -118 176 -45 23 -64 28 -105 24 -27 -2 -59 -8 -70 -12 -11
-4 -4 4 17 19 54 38 92 121 86 190 -13 161 -181 252 -319 175 l-47 -26 14 33
c20 49 18 137 -5 183 -49 96 -159 142 -266 110z"/>
<path d="M8161 11395 c-55 -17 -116 -76 -137 -132 -48 -125 44 -275 179 -290
129 -15 240 86 240 217 0 147 -142 251 -282 205z"/>
<path d="M4482 11375 c-97 -30 -152 -106 -152 -209 0 -184 211 -282 354 -165
134 111 82 332 -89 378 -49 13 -59 13 -113 -4z"/>
<path d="M4017 11309 c-21 -5 -50 -15 -66 -24 -35 -18 -88 -96 -97 -142 -30
-160 118 -295 276 -253 64 17 133 90 150 158 37 158 -105 299 -263 261z"/>
<path d="M10199 11295 c-82 -26 -139 -111 -139 -207 0 -122 97 -218 222 -218
53 0 138 48 173 98 27 40 30 51 30 122 0 71 -3 82 -30 122 -57 80 -160 114
-256 83z"/>
<path d="M6540 11265 c-159 -50 -201 -268 -74 -374 110 -90 271 -55 336 72 29
58 23 159 -15 215 -51 79 -157 116 -247 87z"/>
<path d="M3041 11209 l36 -44 -28 -23 c-64 -52 -87 -166 -50 -247 96 -212 411
-146 411 87 0 68 -16 106 -69 161 -31 33 -34 40 -20 47 9 5 24 21 33 34 l16
25 -56 -26 c-48 -22 -66 -24 -132 -21 -47 3 -93 12 -117 23 -22 10 -44 21 -50
24 -5 2 6 -16 26 -40z"/>
<path d="M8649 11172 c-93 -48 -136 -150 -109 -252 17 -65 91 -134 159 -149
218 -47 360 216 197 367 -74 68 -160 80 -247 34z"/>
<path d="M2135 11149 c-45 -13 -100 -63 -124 -112 -76 -156 65 -339 235 -308
163 30 234 226 126 351 -59 70 -147 96 -237 69z"/>
<path d="M9645 11121 c-79 -36 -125 -111 -125 -201 0 -117 95 -210 215 -210
121 0 215 93 215 212 -1 160 -162 265 -305 199z"/>
<path d="M2596 11086 c-78 -29 -146 -125 -146 -206 0 -116 125 -233 232 -218
16 3 31 1 34 -4 3 -5 17 1 31 12 32 25 47 26 33 1 -12 -23 -13 -61 -2 -61 10
0 32 60 32 89 0 17 4 21 15 17 9 -3 20 3 27 14 7 11 18 20 25 20 23 0 24 -20
2 -49 -32 -43 -13 -60 22 -19 41 49 34 88 -17 88 -21 0 -21 2 -8 38 27 76 12
153 -43 213 -20 22 -49 47 -64 54 -42 22 -128 27 -173 11z"/>
<path d="M9144 11052 c-73 -35 -124 -118 -124 -204 0 -96 120 -223 199 -210
l35 5 -22 -28 c-25 -31 -28 -45 -9 -45 6 0 25 18 41 40 17 22 37 40 45 40 28
0 92 53 119 99 56 95 27 220 -66 285 -56 39 -154 47 -218 18z"/>
<path d="M7060 11034 c-46 -20 -87 -60 -112 -108 -30 -59 -23 -159 16 -215 75
-107 224 -127 319 -42 124 112 93 303 -60 368 -42 17 -119 16 -163 -3z"/>
<path d="M5354 11022 c-96 -45 -144 -158 -112 -263 28 -97 119 -155 228 -147
201 14 267 283 98 395 -54 36 -153 43 -214 15z"/>
<path d="M4805 11014 c-109 -56 -155 -183 -106 -289 97 -210 410 -139 411 93
0 82 -45 153 -122 193 -46 24 -141 25 -183 3z"/>
<path d="M3616 10968 c-56 -15 -131 -91 -146 -148 -44 -166 103 -315 269 -270
65 17 128 80 147 147 48 165 -103 317 -270 271z"/>
<path d="M8111 10929 l32 -40 -31 -32 c-51 -54 -65 -92 -60 -166 3 -54 9 -74
33 -108 80 -113 243 -126 337 -26 82 86 76 230 -15 309 l-35 32 34 33 c18 18
32 34 30 36 -2 2 -20 -6 -41 -18 -27 -16 -59 -24 -115 -27 -68 -4 -85 -1 -135
22 -32 14 -60 26 -62 26 -3 0 10 -18 28 -41z"/>
<path d="M10593 10934 c-88 -32 -152 -138 -139 -232 25 -186 252 -256 375
-116 81 92 77 209 -8 294 -66 66 -142 84 -228 54z"/>
<path d="M4166 10855 c-154 -54 -201 -228 -95 -348 71 -81 179 -98 273 -43 82
48 125 162 96 251 -20 60 -84 122 -143 140 -61 18 -80 18 -131 0z"/>
<path d="M10097 10774 c-146 -45 -199 -228 -100 -344 86 -100 226 -107 318
-15 121 120 60 329 -107 364 -58 13 -51 13 -111 -5z"/>
<path d="M6668 10756 c-116 -42 -178 -152 -148 -262 25 -87 117 -163 199 -164
19 0 42 -7 52 -16 17 -15 17 -17 -11 -40 -48 -41 -73 -105 -68 -178 5 -79 38
-133 105 -173 98 -57 227 -26 290 69 57 86 37 222 -42 285 l-33 27 24 19 c13
10 29 27 34 37 9 17 5 17 -39 -5 -40 -20 -64 -25 -128 -25 -44 0 -83 3 -86 7
-4 3 11 17 33 30 75 45 114 152 90 243 -16 61 -90 132 -153 148 -57 15 -73 15
-119 -2z"/>
<path d="M1745 10726 c-22 -8 -58 -35 -82 -61 -148 -162 9 -412 220 -351 90
26 157 115 157 209 0 145 -157 253 -295 203z"/>
<path d="M2960 10705 c-9 -11 -10 -19 -3 -26 7 -7 14 -5 22 5 14 17 41 10 41
-10 0 -8 -11 -19 -24 -24 -28 -10 -40 -26 -31 -40 5 -8 12 -7 22 2 8 7 25 17
37 23 30 15 32 50 4 69 -28 20 -52 20 -68 1z"/>
<path d="M8590 10703 c0 -4 14 -22 32 -40 l32 -33 -31 -32 c-47 -50 -66 -96
-66 -158 0 -107 70 -191 181 -215 121 -26 252 86 252 215 0 57 -40 142 -82
171 l-30 22 39 39 38 40 -52 -26 c-77 -38 -188 -39 -260 -2 -29 14 -53 23 -53
19z"/>
<path d="M2287 10650 c-131 -25 -210 -187 -148 -307 43 -86 124 -130 219 -120
140 15 228 159 178 292 -22 56 -95 122 -145 131 -20 3 -43 7 -51 9 -8 1 -32
-1 -53 -5z"/>
<path d="M9501 10643 c7 -10 24 -30 36 -44 l24 -26 -24 -16 c-36 -24 -77 -112
-77 -167 0 -140 140 -248 274 -210 166 46 215 265 85 374 l-32 27 32 33 c17
17 31 35 31 38 0 3 -21 -5 -47 -18 -68 -35 -190 -34 -259 1 -58 30 -60 30 -43
8z"/>
<path d="M4570 10639 c-87 -36 -147 -134 -137 -221 8 -65 48 -132 99 -166 36
-23 51 -27 118 -27 67 0 82 4 118 27 128 85 130 274 4 362 -36 25 -54 31 -110
33 -37 2 -78 -2 -92 -8z"/>
<path d="M2862 10629 c2 -6 8 -10 13 -10 5 0 11 4 13 10 2 6 -4 11 -13 11 -9
0 -15 -5 -13 -11z"/>
<path d="M9093 10628 c-13 -6 -23 -17 -23 -25 0 -7 0 -16 -1 -20 -2 -18 19
-12 24 7 3 12 13 20 27 20 19 0 21 -4 15 -22 -20 -64 -1 -85 21 -23 7 22 14
41 14 42 0 1 -7 9 -16 17 -18 18 -30 19 -61 4z"/>
<path d="M9310 10615 c-18 -21 -3 -32 22 -16 17 11 23 10 36 -2 13 -14 11 -17
-17 -31 -17 -9 -31 -23 -31 -31 0 -19 2 -19 44 6 25 15 36 28 36 45 0 39 -64
60 -90 29z"/>
<path d="M3213 10586 c-61 -29 -110 -90 -120 -149 l-6 -40 -23 45 c-67 132
-230 165 -338 69 -78 -71 -97 -166 -50 -259 69 -138 251 -161 354 -45 26 30
42 60 46 85 6 35 24 54 24 25 0 -27 60 -97 102 -119 64 -33 149 -31 211 5 26
15 60 47 75 69 23 36 27 51 27 118 0 67 -4 82 -27 118 -36 53 -102 92 -170 98
-42 4 -63 0 -105 -20z"/>
<path d="M2787 10593 c-12 -11 -8 -23 8 -23 8 0 15 7 15 15 0 16 -12 20 -23 8z"/>
<path d="M2952 10579 c2 -6 8 -10 13 -10 5 0 11 4 13 10 2 6 -4 11 -13 11 -9
0 -15 -5 -13 -11z"/>
<path d="M5092 10577 c-44 -14 -106 -86 -122 -142 -16 -58 -8 -114 25 -170 81
-139 284 -139 370 0 68 110 21 260 -97 310 -42 17 -126 18 -176 2z"/>
<path d="M5676 10578 c-56 -15 -131 -91 -146 -148 -35 -132 55 -265 190 -278
101 -9 198 57 226 155 48 165 -103 317 -270 271z"/>
<path d="M7275 10578 c-78 -27 -145 -119 -145 -198 0 -147 138 -257 274 -216
123 37 187 150 152 269 -34 118 -165 185 -281 145z"/>
<path d="M10959 10565 c-59 -19 -123 -87 -139 -146 -45 -165 105 -313 270
-269 64 17 133 90 150 158 39 165 -118 309 -281 257z"/>
<path d="M9212 10539 c2 -6 8 -10 13 -10 5 0 11 4 13 10 2 6 -4 11 -13 11 -9
0 -15 -5 -13 -11z"/>
<path d="M9137 10504 c-8 -8 1 -24 14 -24 5 0 9 7 9 15 0 15 -12 20 -23 9z"/>
<path d="M9306 10503 c-11 -11 -6 -23 9 -23 8 0 15 4 15 9 0 13 -16 22 -24 14z"/>
<path d="M3691 10458 c-84 -42 -132 -142 -112 -234 17 -73 51 -118 116 -149
113 -56 231 -17 288 94 42 84 33 165 -26 237 -61 73 -177 96 -266 52z"/>
<path d="M9140 10464 c-88 -38 -151 -147 -135 -232 21 -112 106 -185 215 -185
131 0 232 112 217 241 -15 136 -173 230 -297 176z"/>
<path d="M8148 10403 c6 -10 21 -29 35 -41 l25 -24 -38 -40 c-48 -49 -63 -93
-58 -169 3 -45 12 -70 34 -102 34 -49 119 -97 172 -97 126 0 221 94 222 218 0
67 -20 115 -66 159 l-37 34 32 33 c17 17 31 34 31 37 0 3 -21 -5 -47 -17 -37
-18 -67 -24 -128 -25 -69 -2 -87 2 -133 25 -44 22 -52 24 -44 9z"/>
<path d="M10419 10393 c-201 -103 -126 -405 101 -405 228 0 300 305 97 407
-69 34 -127 33 -198 -2z"/>
<path d="M7733 10374 c-88 -32 -152 -138 -139 -232 25 -186 252 -256 375 -116
81 92 77 209 -8 294 -66 66 -142 84 -228 54z"/>
<path d="M1384 10321 c-83 -38 -143 -145 -128 -229 20 -113 104 -185 214 -185
121 0 220 97 220 215 0 47 -36 133 -66 160 -62 55 -167 72 -240 39z"/>
<path d="M4175 10301 c-154 -69 -167 -283 -24 -378 63 -41 150 -44 218 -8 199
108 126 406 -100 405 -30 0 -71 -8 -94 -19z"/>
<path d="M6240 10299 c-48 -19 -93 -62 -116 -113 -39 -84 -28 -165 33 -235 94
-111 281 -90 353 39 79 142 -27 321 -190 319 -30 0 -66 -5 -80 -10z"/>
<path d="M4695 10201 c-107 -49 -155 -179 -106 -287 19 -41 94 -114 118 -114
16 0 17 -12 2 -27 -13 -13 -5 -43 10 -43 5 0 11 10 13 22 2 13 11 24 22 26 17
4 18 -1 12 -41 -4 -27 -3 -48 3 -51 6 -4 8 -13 4 -21 -3 -9 1 -15 11 -15 19 0
20 4 4 29 -9 15 -9 25 0 46 7 14 12 34 12 43 0 12 13 20 45 28 49 11 55 6 25
-21 -20 -18 -27 -45 -12 -45 12 0 62 68 62 84 0 8 12 28 26 43 78 83 72 224
-13 305 -61 58 -161 75 -238 39z"/>
<path d="M9950 10209 c-160 -67 -184 -284 -42 -384 40 -27 51 -30 121 -30 68
0 83 3 119 27 128 85 130 274 4 362 -36 25 -54 31 -110 33 -37 2 -78 -2 -92
-8z"/>
<path d="M2428 10186 c-57 -21 -85 -42 -116 -88 -24 -36 -27 -51 -27 -119 0
-70 3 -81 30 -120 20 -28 49 -52 82 -69 32 -15 52 -32 52 -42 1 -22 19 -24 27
-3 8 19 44 20 44 1 0 -7 -7 -19 -15 -26 -14 -12 -21 -50 -10 -50 13 0 54 57
55 75 0 13 15 28 47 45 28 14 60 43 78 68 27 40 30 51 30 122 0 71 -3 82 -30
122 -55 78 -165 115 -247 84z"/>
<path d="M1932 10177 c-83 -30 -142 -114 -142 -200 0 -140 130 -248 260 -217
105 25 173 110 172 215 -1 149 -150 252 -290 202z"/>
<path d="M11292 10167 c-87 -32 -142 -110 -142 -202 0 -132 85 -219 216 -220
50 0 69 5 109 30 94 58 131 180 84 281 -46 96 -168 147 -267 111z"/>
<path d="M5229 10093 c-100 -51 -144 -169 -100 -269 42 -93 103 -134 201 -134
128 0 214 86 215 216 0 83 -38 147 -114 186 -71 37 -129 37 -202 1z"/>
<path d="M3335 10071 c-105 -27 -167 -105 -167 -211 0 -163 160 -266 307 -196
59 27 77 46 104 106 47 104 3 232 -99 285 -34 17 -108 26 -145 16z"/>
<path d="M10808 10056 c-57 -20 -85 -42 -116 -88 -23 -36 -27 -51 -27 -118 0
-67 4 -82 27 -118 85 -128 274 -130 363 -4 27 40 30 51 30 122 0 71 -3 82 -30
122 -35 51 -120 98 -174 98 -20 -1 -53 -7 -73 -14z"/>
<path d="M5745 10034 c-78 -29 -145 -123 -145 -205 0 -82 69 -177 148 -204 88
-29 157 -13 223 54 89 88 92 205 8 296 -63 68 -149 90 -234 59z"/>
<path d="M8782 10029 c-129 -64 -160 -227 -65 -338 44 -52 104 -75 182 -69
155 11 243 173 170 314 -52 101 -184 144 -287 93z"/>
<path d="M7257 10016 c-151 -54 -195 -247 -81 -359 137 -137 368 -40 368 153
0 150 -147 255 -287 206z"/>
<path d="M9410 9994 c-81 -35 -130 -111 -130 -200 0 -108 64 -188 169 -214
171 -41 318 147 240 307 -49 101 -178 151 -279 107z"/>
<path d="M3838 9986 c-100 -27 -158 -104 -158 -210 0 -132 105 -227 238 -213
135 14 225 153 182 283 -35 106 -154 169 -262 140z"/>
<path d="M960 9925 c0 -2 14 -20 31 -40 l31 -35 -41 -46 c-92 -105 -67 -259
55 -330 140 -82 324 25 324 188 0 56 -40 140 -79 169 l-31 23 37 38 c20 21 35
38 33 38 -3 0 -27 -11 -54 -25 -69 -35 -179 -35 -253 0 -29 13 -53 22 -53 20z"/>
<path d="M2844 9911 c-22 -10 -57 -37 -77 -61 -119 -139 -18 -353 167 -353
114 0 216 98 216 209 0 161 -163 270 -306 205z"/>
<path d="M7785 9909 c-113 -33 -177 -183 -126 -294 75 -165 307 -172 389 -12
89 173 -73 362 -263 306z"/>
<path d="M6611 9888 c-53 -26 -95 -82 -111 -147 -31 -131 75 -261 214 -261
188 1 287 228 158 363 -65 69 -175 88 -261 45z"/>
<path d="M1566 9845 c-42 -15 -100 -65 -121 -105 -63 -120 13 -280 147 -310
80 -18 151 4 206 64 85 92 82 208 -7 297 -65 66 -141 84 -225 54z"/>
<path d="M10370 9849 c-99 -41 -158 -156 -131 -255 28 -106 117 -169 227 -162
204 13 274 274 106 392 -36 25 -54 31 -110 33 -37 2 -78 -2 -92 -8z"/>
<path d="M8249 9817 c-54 -28 -104 -99 -113 -159 -25 -167 158 -301 311 -227
161 78 162 308 2 390 -55 27 -143 26 -200 -4z"/>
<path d="M4336 9798 c-56 -15 -131 -91 -146 -148 -29 -107 22 -214 125 -261
155 -71 334 77 296 246 -27 121 -155 197 -275 163z"/>
<path d="M4943 9775 c-8 -22 4 -30 22 -15 16 13 45 7 45 -10 0 -6 -11 -15 -24
-22 -24 -10 -42 -36 -32 -45 2 -3 23 7 45 21 41 27 51 52 29 74 -18 18 -77 15
-85 -3z"/>
<path d="M6175 9771 c-166 -77 -167 -308 -1 -393 57 -29 156 -22 209 14 63 43
91 92 95 169 5 74 -14 123 -65 171 -61 58 -161 75 -238 39z"/>
<path d="M2357 9722 c-18 -20 -23 -52 -8 -52 5 0 11 9 14 20 3 12 14 20 27 20
19 0 21 -4 15 -22 -19 -63 2 -80 24 -20 12 34 12 43 2 56 -18 21 -54 20 -74
-2z"/>
<path d="M11605 9731 c-106 -27 -170 -108 -169 -216 1 -66 16 -104 61 -149
149 -152 404 -17 368 194 -18 109 -154 197 -260 171z"/>
<path d="M2580 9715 c-18 -21 -3 -32 22 -16 17 11 23 10 36 -2 13 -14 11 -17
-17 -31 -17 -9 -31 -23 -31 -31 0 -19 2 -19 44 6 38 22 47 54 24 77 -17 17
-63 15 -78 -3z"/>
<path d="M4856 9713 c-11 -11 -6 -23 9 -23 8 0 15 4 15 9 0 13 -16 22 -24 14z"/>
<path d="M11101 9694 c-123 -62 -157 -221 -69 -328 113 -138 337 -87 378 85
24 100 -21 198 -112 243 -69 34 -128 34 -197 0z"/>
<path d="M9930 9699 c-77 -32 -140 -123 -140 -205 0 -59 45 -142 98 -179 39
-27 51 -30 121 -30 68 0 83 3 119 27 129 86 129 280 0 365 -32 22 -55 28 -107
30 -36 2 -77 -2 -91 -8z"/>
<path d="M4940 9655 c0 -9 5 -15 11 -13 6 2 11 8 11 13 0 5 -5 11 -11 13 -6 2
-11 -4 -11 -13z"/>
<path d="M2480 9640 c0 -5 7 -10 15 -10 8 0 15 5 15 10 0 6 -7 10 -15 10 -8 0
-15 -4 -15 -10z"/>
<path d="M4765 9622 c-204 -98 -140 -410 85 -412 l45 0 -40 -23 c-153 -87
-150 -302 6 -385 65 -35 156 -29 221 16 166 114 97 376 -104 390 l-59 5 48 27
c138 81 144 274 12 366 -55 37 -153 45 -214 16z"/>
<path d="M2410 9595 c0 -9 5 -15 11 -13 6 2 11 8 11 13 0 5 -5 11 -11 13 -6 2
-11 -4 -11 -13z"/>
<path d="M2576 9603 c-11 -11 -6 -23 9 -23 8 0 15 4 15 9 0 13 -16 22 -24 14z"/>
<path d="M1960 9587 c-97 -52 -134 -108 -134 -202 0 -118 80 -205 195 -213 79
-6 138 17 184 71 87 102 66 250 -46 324 -50 33 -156 44 -199 20z"/>
<path d="M5302 9569 c-205 -102 -134 -410 94 -410 139 0 239 119 213 255 -26
139 -181 217 -307 155z"/>
<path d="M2410 9564 c-19 -8 -52 -32 -73 -52 -134 -130 -38 -363 151 -365 197
-1 296 230 157 368 -62 62 -159 82 -235 49z"/>
<path d="M6895 9531 c-58 -26 -103 -77 -120 -136 -42 -140 61 -276 208 -276
184 0 283 212 166 354 -58 71 -170 97 -254 58z"/>
<path d="M7412 9515 c-87 -38 -142 -116 -142 -203 0 -93 67 -182 158 -208 141
-41 273 58 275 205 1 152 -157 264 -291 206z"/>
<path d="M5793 9455 c-124 -57 -159 -222 -71 -329 43 -53 95 -76 168 -76 128
0 214 86 215 216 0 83 -38 147 -114 186 -68 36 -127 37 -198 3z"/>
<path d="M10735 9466 c-41 -18 -95 -73 -113 -116 -19 -45 -19 -125 0 -170 33
-76 115 -130 200 -130 123 1 218 95 218 215 0 82 -51 163 -125 196 -47 22
-136 24 -180 5z"/>
<path d="M1345 9439 c-16 -4 -47 -23 -69 -41 -104 -86 -101 -261 6 -338 111
-80 257 -49 322 69 93 172 -69 366 -259 310z"/>
<path d="M815 9411 c-49 -22 -88 -58 -109 -99 -85 -164 66 -355 246 -312 91
22 168 122 168 217 0 72 -63 161 -135 194 -51 24 -119 24 -170 0z"/>
<path d="M7862 9417 c-124 -45 -179 -192 -116 -308 108 -197 405 -122 404 102
-1 153 -146 257 -288 206z"/>
<path d="M6612 9318 c-8 -8 -9 -15 -1 -25 18 -21 39 -15 39 12 0 27 -18 33
-38 13z"/>
<path d="M6385 9306 c-55 -20 -119 -93 -134 -151 -41 -164 110 -308 273 -261
61 18 126 80 144 137 16 53 24 129 14 129 -16 0 -23 32 -11 46 9 11 8 19 -6
34 -10 11 -23 19 -29 18 -6 -1 -33 11 -60 27 -58 34 -132 42 -191 21z"/>
<path d="M11795 9276 c-22 -9 -59 -35 -81 -59 -146 -154 -3 -403 204 -357 71
16 144 84 162 150 46 172 -120 326 -285 266z"/>
<path d="M10310 9259 c-77 -32 -140 -123 -140 -205 0 -59 45 -142 98 -179 39
-27 51 -30 121 -30 68 0 83 3 119 27 129 86 129 280 0 365 -32 22 -55 28 -107
30 -36 2 -77 -2 -91 -8z"/>
<path d="M11270 9254 c-151 -65 -182 -273 -56 -369 98 -75 224 -62 304 29 98
112 46 297 -97 345 -46 15 -109 13 -151 -5z"/>
<path d="M1685 9141 c-209 -97 -140 -411 90 -411 66 0 109 16 149 56 112 113
78 298 -66 358 -50 21 -124 20 -173 -3z"/>
<path d="M7115 9111 c-93 -42 -151 -155 -126 -247 32 -120 143 -190 259 -164
71 16 144 84 162 150 47 177 -132 336 -295 261z"/>
<path d="M2146 9018 c-78 -21 -156 -126 -156 -210 0 -109 110 -218 220 -218
112 0 220 108 220 220 0 88 -69 180 -153 205 -57 17 -75 17 -131 3z"/>
<path d="M5429 9016 c-59 -21 -96 -53 -123 -108 -83 -167 62 -352 242 -308
173 41 224 264 87 378 -61 49 -135 63 -206 38z"/>
<path d="M640 8992 c-29 -11 -55 -32 -77 -60 -60 -79 -66 -165 -18 -251 29
-50 29 -51 11 -51 -15 0 -28 -24 -19 -33 3 -3 13 -1 23 5 19 12 50 5 50 -12 0
-6 -11 -15 -25 -20 -26 -10 -43 -36 -31 -47 3 -3 14 1 24 10 10 10 23 17 29
17 6 0 17 9 24 20 12 17 19 18 54 10 166 -39 316 141 246 295 -53 118 -168
164 -291 117z"/>
<path d="M5895 8991 c-141 -65 -169 -255 -52 -358 124 -108 321 -44 356 116
37 173 -143 317 -304 242z"/>
<path d="M1405 8984 c-17 -13 -18 -16 -5 -24 26 -16 40 -11 40 15 0 29 -7 30
-35 9z"/>
<path d="M10760 8989 c-77 -32 -140 -123 -140 -204 0 -47 37 -130 71 -162 80
-74 244 -68 306 11 18 22 18 21 18 -55 0 -70 3 -82 30 -121 20 -28 49 -52 84
-70 84 -43 164 -35 234 23 54 45 77 95 77 172 0 56 -4 71 -32 113 -45 67 -105
99 -183 98 -63 -1 -103 -16 -146 -56 l-25 -23 0 65 c1 54 -4 73 -27 113 -41
69 -94 101 -176 104 -36 2 -77 -2 -91 -8z"/>
<path d="M1182 8977 c-200 -73 -190 -360 14 -417 128 -36 248 48 275 193 8 48
7 60 -7 82 -13 20 -14 28 -4 40 10 13 10 19 -5 35 -10 11 -22 17 -27 14 -5 -3
-26 6 -47 20 -65 45 -133 56 -199 33z"/>
<path d="M6685 8933 c-62 -18 -88 -42 -121 -110 -84 -172 81 -359 263 -299 87
29 146 112 146 206 0 95 -60 179 -147 205 -60 18 -77 18 -141 -2z"/>
<path d="M7561 8925 c-73 -43 -111 -106 -111 -187 1 -231 305 -302 411 -96 45
88 10 217 -74 275 -33 23 -53 28 -111 31 -61 2 -77 -1 -115 -23z"/>
<path d="M12004 8835 c-39 -17 -88 -73 -105 -119 -13 -37 -29 -48 -29 -21 0
26 -85 103 -126 114 -153 43 -284 -55 -284 -212 0 -52 5 -71 29 -108 73 -116
222 -138 324 -49 25 22 52 58 61 81 l17 42 28 -45 c44 -69 90 -93 181 -93 62
0 82 4 114 24 78 49 121 157 96 246 -15 55 -71 121 -117 140 -44 18 -147 18
-189 0z"/>
<path d="M5062 8788 c-14 -14 -16 -38 -3 -38 5 0 14 7 21 15 7 8 19 15 26 15
19 0 18 -34 -1 -50 -16 -13 -21 -40 -7 -40 14 0 52 58 52 79 0 30 -63 44 -88
19z"/>
<path d="M4962 8744 c-12 -8 -22 -24 -22 -35 0 -25 20 -25 27 1 3 12 14 20 25
20 16 0 19 -4 13 -22 -11 -36 -11 -61 0 -65 6 -2 17 18 24 43 13 43 13 48 -4
61 -24 17 -36 17 -63 -3z"/>
<path d="M5180 8735 c-18 -21 -3 -32 22 -16 17 11 23 10 36 -3 14 -13 12 -17
-16 -33 -27 -15 -44 -43 -27 -43 8 0 48 23 68 39 22 18 22 26 -3 51 -24 24
-63 26 -80 5z"/>
<path d="M428 8679 c-18 -10 -25 -49 -9 -49 5 0 15 10 23 22 13 20 17 21 32 9
15 -13 15 -16 -4 -36 -18 -19 -28 -55 -15 -55 14 0 54 57 55 76 0 39 -42 57
-82 33z"/>
<path d="M1615 8674 c-154 -84 -168 -286 -26 -380 47 -31 132 -42 185 -24 166
55 200 284 57 385 -36 25 -53 30 -114 32 -52 2 -80 -1 -102 -13z"/>
<path d="M6446 8675 c-21 -16 -13 -35 15 -35 12 0 19 7 19 19 0 27 -12 32 -34
16z"/>
<path d="M5085 8661 c-7 -12 12 -24 25 -16 11 7 4 25 -10 25 -5 0 -11 -4 -15
-9z"/>
<path d="M6189 8647 c-84 -44 -132 -151 -108 -240 33 -127 176 -202 292 -154
77 33 119 91 138 191 8 47 7 59 -8 82 -13 20 -14 29 -5 32 6 2 12 8 12 14 0
17 -30 40 -45 35 -7 -3 -19 1 -26 9 -46 56 -172 72 -250 31z"/>
<path d="M7020 8663 c0 -4 14 -22 31 -39 l32 -33 -32 -31 c-60 -61 -80 -129
-61 -208 51 -216 360 -220 420 -6 22 79 -14 188 -76 229 l-26 17 38 39 c21 21
36 39 34 39 -3 0 -27 -11 -54 -25 -69 -35 -179 -35 -253 0 -29 13 -53 21 -53
18z"/>
<path d="M10452 8657 c-41 -13 -109 -88 -122 -136 -41 -149 58 -281 212 -281
141 0 246 139 205 271 -40 128 -162 189 -295 146z"/>
<path d="M312 8628 c-15 -15 -16 -58 -2 -58 6 0 15 12 20 26 6 14 16 24 23 21
11 -4 12 -17 5 -61 -6 -37 17 -25 30 15 10 31 10 44 1 55 -14 17 -61 18 -77 2z"/>
<path d="M5010 8615 c0 -9 5 -15 11 -13 6 2 11 8 11 13 0 5 -5 11 -11 13 -6 2
-11 -4 -11 -13z"/>
<path d="M5176 8623 c-11 -11 -6 -23 9 -23 8 0 15 4 15 9 0 13 -16 22 -24 14z"/>
<path d="M5025 8589 c-43 -12 -102 -65 -126 -112 -31 -59 -24 -158 14 -216 93
-140 299 -126 373 25 55 112 16 230 -95 287 -56 28 -109 33 -166 16z"/>
<path d="M790 8555 c-7 -8 -9 -23 -5 -32 6 -16 8 -15 24 6 12 16 24 22 35 18
21 -8 20 -20 -4 -42 -19 -17 -28 -56 -12 -54 9 0 50 51 58 72 14 37 -69 65
-96 32z"/>
<path d="M445 8551 c-7 -12 12 -24 25 -16 11 7 4 25 -10 25 -5 0 -11 -4 -15
-9z"/>
<path d="M700 8517 c-15 -8 -25 -21 -25 -35 0 -28 19 -30 23 -2 2 12 11 20 24
20 17 0 19 -4 14 -27 -11 -48 -11 -56 -1 -60 6 -2 17 18 24 43 13 43 13 48 -4
61 -23 16 -24 16 -55 0z"/>
<path d="M370 8505 c0 -9 5 -15 11 -13 6 2 11 8 11 13 0 5 -5 11 -11 13 -6 2
-11 -4 -11 -13z"/>
<path d="M916 8504 c-23 -22 -9 -37 18 -19 21 14 25 14 37 -1 11 -13 11 -18 2
-21 -26 -9 -56 -40 -49 -51 5 -8 17 -5 39 11 53 37 57 47 27 77 -24 24 -53 26
-74 4z"/>
<path d="M532 8498 c6 -18 28 -21 28 -4 0 9 -7 16 -16 16 -9 0 -14 -5 -12 -12z"/>
<path d="M1155 8493 c-27 -8 -62 -26 -78 -41 -35 -33 -67 -100 -67 -140 0 -33
-14 -43 -23 -18 -3 8 -27 27 -54 43 -67 39 -148 39 -215 0 l-48 -28 -16 41
c-9 22 -36 58 -61 80 -141 123 -357 23 -355 -165 1 -176 198 -275 344 -173
l26 18 12 -36 c17 -50 86 -117 136 -132 63 -19 105 -15 165 16 66 33 109 91
116 156 l6 46 37 -34 c21 -18 54 -39 75 -46 46 -15 120 -9 165 13 42 22 41 22
28 -14 -6 -16 -8 -57 -6 -90 6 -79 43 -134 117 -171 61 -31 109 -35 168 -14
l39 14 -1 -77 c0 -68 3 -83 28 -119 64 -97 178 -128 281 -78 32 16 63 40 77
61 29 42 35 43 44 8 11 -46 55 -94 109 -119 95 -44 190 -24 259 56 87 102 60
257 -55 323 -96 55 -184 42 -263 -37 l-50 -51 -25 50 c-37 71 -93 108 -173
113 -41 3 -75 -1 -97 -10 l-35 -15 0 82 c0 72 -3 86 -27 123 -61 91 -194 126
-282 74 -33 -20 -37 -20 -31 -5 4 10 10 42 13 71 9 104 -52 198 -148 226 -64
19 -70 19 -135 -1z"/>
<path d="M5655 8473 c-209 -110 -137 -413 98 -413 123 0 229 125 211 248 -9
60 -59 131 -113 159 -53 28 -149 31 -196 6z"/>
<path d="M820 8425 c0 -9 5 -15 11 -13 6 2 11 8 11 13 0 5 -5 11 -11 13 -6 2
-11 -4 -11 -13z"/>
<path d="M2071 8430 c-168 -40 -219 -268 -84 -379 70 -58 150 -66 234 -23 35
17 64 42 83 69 84 121 13 300 -131 334 -44 10 -56 10 -102 -1z"/>
<path d="M6619 8402 c-91 -48 -136 -151 -109 -252 16 -61 90 -132 153 -148 61
-16 75 -41 41 -73 -43 -40 -66 -96 -66 -159 0 -227 302 -302 405 -101 47 94
30 189 -46 261 -29 27 -34 36 -22 42 7 5 23 21 34 36 l20 28 -48 -24 c-35 -17
-69 -24 -120 -26 -89 -3 -103 5 -51 29 140 63 169 249 56 353 -74 68 -160 80
-247 34z"/>
<path d="M7582 8407 c-73 -28 -131 -96 -145 -172 -5 -29 3 -93 17 -126 11 -25
-59 -48 -149 -50 -62 -1 -84 3 -125 23 -28 14 -50 22 -50 19 0 -3 14 -22 29
-41 l29 -35 -38 -41 c-83 -90 -79 -207 9 -295 93 -93 224 -90 309 6 83 94 81
204 -4 295 l-44 47 23 21 23 22 25 -26 c105 -113 287 -87 355 52 34 69 31 139
-9 207 -49 82 -169 127 -255 94z"/>
<path d="M10855 8395 c-77 -27 -145 -124 -145 -205 0 -89 68 -179 156 -207 46
-14 61 -15 110 -4 96 22 174 119 174 218 0 78 -70 171 -147 197 -57 19 -95 20
-148 1z"/>
<path d="M12175 8391 c-53 -24 -112 -91 -121 -136 -8 -44 -20 -53 -28 -19 -10
38 -85 108 -132 122 -61 18 -103 15 -161 -12 -51 -24 -113 -91 -113 -123 0 -7
-4 -13 -10 -13 -5 0 -10 6 -10 13 0 24 -63 90 -104 108 -123 56 -264 -9 -302
-137 -20 -69 -7 -133 38 -196 19 -26 27 -43 20 -46 -18 -6 -14 -30 6 -34 9 -2
22 2 27 10 8 10 17 11 38 3 43 -17 127 -13 173 8 43 20 101 82 110 119 6 21 9
19 34 -22 39 -61 106 -99 176 -100 30 -1 54 -2 54 -4 0 -2 -5 -13 -11 -24 -8
-14 -8 -23 0 -31 7 -7 13 -2 21 17 7 18 16 26 28 24 17 -4 18 -10 6 -62 -10
-44 15 -29 32 19 13 38 13 41 -7 58 -12 10 -20 19 -18 20 74 50 118 112 119
168 1 21 4 19 22 -16 72 -141 228 -174 342 -74 56 49 80 109 74 179 -14 146
-172 241 -303 181z"/>
<path d="M740 8385 c0 -9 5 -15 11 -13 6 2 11 8 11 13 0 5 -5 11 -11 13 -6 2
-11 -4 -11 -13z"/>
<path d="M902 8379 c2 -6 8 -10 13 -10 5 0 11 4 13 10 2 6 -4 11 -13 11 -9 0
-15 -5 -13 -11z"/>
<path d="M5249 8130 c-159 -84 -156 -312 4 -389 153 -74 336 60 311 227 -9 60
-59 131 -113 159 -57 30 -149 31 -202 3z"/>
<path d="M10462 8107 c-86 -32 -142 -113 -142 -208 0 -163 183 -268 324 -185
127 74 144 256 33 351 -62 53 -141 68 -215 42z"/>
<path d="M6182 8089 c-205 -102 -135 -409 94 -409 108 0 188 64 214 169 41
171 -149 319 -308 240z"/>
<path d="M11982 7978 c-15 -15 -16 -38 -2 -38 6 0 13 7 16 15 7 17 30 20 39 5
3 -5 -4 -23 -16 -39 -32 -43 -13 -60 22 -19 43 50 34 88 -21 88 -14 0 -31 -5
-38 -12z"/>
<path d="M239 7942 c-93 -48 -137 -150 -109 -252 18 -68 89 -134 160 -150 157
-35 295 102 260 258 -9 42 -22 65 -58 102 -74 76 -161 90 -253 42z"/>
<path d="M12289 7937 c-57 -30 -105 -100 -114 -167 l-7 -52 -22 21 c-25 24
-97 51 -135 51 -54 0 -119 -31 -160 -76 -23 -24 -41 -50 -41 -58 0 -8 -5 -18
-12 -22 -7 -5 -9 -2 -5 8 3 9 1 35 -4 59 -23 103 -105 171 -207 171 -71 0
-100 -11 -151 -57 -138 -125 -63 -353 123 -372 93 -10 174 35 219 122 16 30
16 30 17 5 2 -113 109 -220 220 -220 110 0 220 109 220 218 l0 22 41 -27 c48
-32 136 -42 194 -23 77 25 145 122 145 205 0 159 -179 266 -321 192z"/>
<path d="M11005 7933 c-78 -41 -125 -114 -125 -198 0 -228 306 -297 411 -93
10 21 19 49 19 63 0 15 5 35 11 46 8 15 6 25 -11 46 -18 23 -19 28 -5 43 14
15 13 19 -5 35 -10 9 -26 15 -34 12 -8 -3 -20 1 -27 9 -42 50 -170 71 -234 37z"/>
<path d="M12100 7925 c-19 -22 -2 -40 20 -20 10 9 24 14 29 10 19 -11 12 -35
-14 -45 -14 -5 -25 -14 -25 -20 0 -19 -2 -25 -12 -37 -5 -7 -7 -17 -3 -23 9
-14 28 -1 21 15 -5 14 12 32 47 50 28 14 33 42 11 66 -20 23 -57 25 -74 4z"/>
<path d="M4818 7910 c-78 -42 -128 -142 -113 -229 17 -99 114 -181 215 -181
101 0 198 82 215 181 15 88 -36 189 -116 229 -51 27 -150 26 -201 0z"/>
<path d="M1110 7907 c-57 -19 -125 -94 -140 -155 -42 -178 149 -330 310 -247
43 22 98 91 110 137 27 100 -20 207 -113 255 -39 20 -123 25 -167 10z"/>
<path d="M5700 7894 c-80 -35 -130 -111 -130 -199 0 -68 17 -110 61 -154 43
-44 89 -62 153 -62 64 0 94 11 141 53 121 105 90 301 -57 362 -47 20 -122 20
-168 0z"/>
<path d="M692 7858 c-15 -15 -16 -38 -2 -38 6 0 13 7 16 15 7 17 44 21 44 4 0
-6 -9 -22 -20 -36 -38 -48 -15 -61 25 -15 39 44 28 82 -25 82 -14 0 -31 -5
-38 -12z"/>
<path d="M7697 7856 c-151 -54 -195 -247 -81 -359 137 -137 369 -40 368 153
-2 151 -147 255 -287 206z"/>
<path d="M12002 7848 c6 -18 28 -21 28 -4 0 9 -7 16 -16 16 -9 0 -14 -5 -12
-12z"/>
<path d="M592 7814 c-12 -8 -22 -24 -22 -35 0 -25 16 -25 23 1 3 12 14 20 26
20 24 0 26 -9 9 -45 -9 -19 -9 -28 0 -37 8 -8 13 -7 17 8 4 10 11 27 16 36 13
24 11 34 -7 52 -19 20 -34 20 -62 0z"/>
<path d="M810 7805 c-18 -21 -4 -32 21 -17 16 10 24 10 35 1 17 -14 10 -27
-22 -39 -13 -5 -24 -16 -24 -25 0 -19 2 -19 44 6 25 15 36 28 36 45 0 39 -64
60 -90 29z"/>
<path d="M11927 7814 c-8 -8 1 -24 14 -24 5 0 9 7 9 15 0 15 -12 20 -23 9z"/>
<path d="M712 7728 c6 -18 28 -21 28 -4 0 9 -7 16 -16 16 -9 0 -14 -5 -12 -12z"/>
<path d="M635 7691 c-7 -12 12 -24 25 -16 11 7 4 25 -10 25 -5 0 -11 -4 -15
-9z"/>
<path d="M806 7693 c-11 -11 -6 -23 9 -23 8 0 15 4 15 9 0 13 -16 22 -24 14z"/>
<path d="M635 7651 c-93 -42 -151 -155 -126 -247 32 -120 143 -190 259 -164
71 16 144 84 162 150 47 177 -132 336 -295 261z"/>
<path d="M10391 7646 c-10 -12 -8 -17 8 -25 28 -15 31 -14 31 14 0 28 -21 33
-39 11z"/>
<path d="M10160 7634 c-46 -20 -87 -60 -112 -108 -30 -60 -23 -157 17 -213 43
-59 87 -86 150 -91 80 -7 118 4 168 48 48 43 70 87 81 162 5 35 3 54 -8 69
-11 16 -12 26 -4 39 9 14 8 22 -6 35 -9 9 -23 15 -31 12 -7 -3 -19 1 -27 10
-39 48 -159 67 -228 37z"/>
<path d="M10645 7631 c-142 -65 -177 -234 -73 -347 55 -60 126 -82 206 -64 44
10 65 22 102 60 38 37 50 58 60 102 39 172 -138 321 -295 249z"/>
<path d="M5245 7601 c-166 -42 -228 -242 -112 -361 158 -162 427 -10 366 207
-29 106 -151 180 -254 154z"/>
<path d="M1495 7571 c-140 -63 -168 -256 -52 -358 47 -41 96 -56 167 -51 172
12 257 223 141 351 -67 74 -170 98 -256 58z"/>
<path d="M6103 7559 c-103 -51 -151 -173 -108 -275 l14 -35 -33 36 c-43 45
-92 65 -158 65 -127 -1 -218 -96 -218 -229 0 -25 -4 -40 -10 -36 -14 9 -50
-13 -50 -30 0 -17 16 -20 25 -5 10 15 45 12 45 -5 0 -8 -10 -20 -22 -26 -26
-14 -39 -30 -32 -41 2 -4 20 2 39 13 l35 21 41 -36 c54 -45 97 -59 169 -54
135 10 230 151 187 277 l-16 43 32 -30 c54 -51 92 -65 168 -60 56 3 76 9 111
33 106 76 121 238 30 331 -63 64 -171 82 -249 43z"/>
<path d="M6572 7557 c-84 -31 -142 -114 -142 -203 1 -143 140 -250 273 -210
101 30 157 105 157 210 0 151 -146 254 -288 203z"/>
<path d="M7132 7524 c-91 -45 -136 -143 -112 -243 51 -214 361 -218 420 -5 37
133 -71 274 -210 274 -29 0 -65 -9 -98 -26z"/>
<path d="M12270 7503 c0 -4 14 -22 32 -40 l31 -32 -28 -22 c-35 -28 -75 -113
-75 -159 0 -127 92 -220 218 -220 196 0 290 230 150 369 -41 42 -41 42 -20 57
12 8 26 24 32 34 9 18 6 17 -42 -5 -74 -34 -172 -34 -245 0 -29 13 -53 21 -53
18z"/>
<path d="M2480 7458 c-55 -29 -106 -101 -115 -161 -14 -89 38 -187 120 -227
66 -32 158 -26 217 16 53 36 98 119 98 179 0 60 -45 143 -98 180 -61 42 -157
47 -222 13z"/>
<path d="M11149 7466 c-59 -21 -96 -53 -123 -108 -45 -90 -30 -176 43 -249 36
-37 57 -49 101 -59 118 -26 229 43 261 164 34 127 -80 267 -216 266 -16 -1
-46 -7 -66 -14z"/>
<path d="M212 7456 c-164 -53 -212 -250 -89 -363 24 -23 54 -44 65 -47 20 -7
21 -9 6 -31 -11 -17 -12 -25 -3 -30 6 -5 16 -1 21 9 11 19 48 22 48 3 0 -8 -9
-22 -20 -32 -22 -20 -27 -45 -7 -45 19 0 60 66 53 87 -5 16 2 21 41 32 26 6
63 24 81 38 43 32 82 114 82 171 0 141 -145 250 -278 208z"/>
<path d="M4559 7447 c-61 -23 -97 -55 -125 -112 -48 -100 -20 -211 69 -272 84
-57 185 -53 261 9 96 79 106 225 22 316 -51 57 -158 84 -227 59z"/>
<path d="M8010 7445 c0 -2 14 -20 31 -40 l31 -35 -41 -46 c-138 -157 0 -395
205 -353 94 18 173 112 174 203 0 64 -22 118 -66 162 l-41 42 36 36 36 37 -55
-25 c-77 -36 -183 -36 -257 -1 -29 13 -53 22 -53 20z"/>
<path d="M2030 7410 c-169 -31 -235 -243 -113 -362 85 -83 197 -91 292 -20 41
31 81 113 81 170 0 133 -127 237 -260 212z"/>
<path d="M1065 7401 c-128 -32 -201 -158 -161 -278 43 -130 182 -188 305 -127
123 62 157 221 69 328 -50 61 -142 95 -213 77z"/>
<path d="M7656 7368 c-25 -7 -58 -29 -86 -58 -60 -59 -79 -123 -60 -202 22
-91 122 -168 217 -168 72 0 161 63 194 135 46 100 -1 228 -104 281 -38 20
-113 26 -161 12z"/>
<path d="M11595 7362 c-211 -101 -139 -412 95 -412 64 0 117 26 164 81 40 48
50 85 44 164 -5 64 -36 113 -93 152 -53 36 -151 43 -210 15z"/>
<path d="M4072 7264 c-23 -16 -30 -44 -12 -44 6 0 13 7 16 15 7 16 39 21 48 6
3 -4 -3 -16 -14 -26 -18 -17 -28 -55 -14 -55 7 0 40 38 54 62 8 13 6 22 -10
38 -24 24 -38 25 -68 4z"/>
<path d="M9755 7245 c-77 -27 -145 -124 -145 -206 0 -91 78 -187 170 -209 71
-17 136 0 194 51 97 86 101 217 7 310 -66 66 -141 84 -226 54z"/>
<path d="M3957 7212 c-19 -21 -23 -52 -7 -52 6 0 15 12 20 26 6 14 16 24 23
21 11 -4 12 -11 5 -62 -5 -37 16 -27 31 13 12 34 12 43 2 56 -18 21 -54 20
-74 -2z"/>
<path d="M4181 7206 c-16 -19 5 -32 24 -16 16 13 45 7 45 -9 0 -6 -13 -17 -30
-26 -16 -9 -30 -22 -30 -30 0 -20 4 -19 50 10 22 14 40 31 40 39 0 37 -75 61
-99 32z"/>
<path d="M10306 7206 c-60 -22 -114 -82 -133 -145 -24 -83 -6 -149 57 -211 62
-63 128 -81 212 -56 188 54 210 312 35 403 -42 21 -125 26 -171 9z"/>
<path d="M10740 7147 c-160 -84 -157 -305 5 -387 40 -21 49 -30 47 -48 -4 -27
18 -30 25 -3 6 24 32 35 39 18 3 -8 0 -25 -5 -39 -9 -25 -6 -38 10 -38 4 0 13
20 20 45 11 37 21 49 53 65 48 24 55 20 27 -16 -21 -27 -28 -54 -13 -54 4 0
20 16 36 36 22 28 27 41 19 53 -7 11 -3 26 17 58 70 110 32 250 -83 308 -67
33 -137 34 -197 2z"/>
<path d="M12055 7161 c-113 -28 -187 -134 -171 -244 17 -111 120 -194 230
-185 73 6 138 46 173 106 49 84 32 204 -39 268 -51 47 -133 70 -193 55z"/>
<path d="M4958 7148 c-21 -5 -57 -27 -82 -49 -173 -152 -20 -429 204 -369 65
17 134 91 149 159 22 102 -23 198 -114 244 -41 21 -112 28 -157 15z"/>
<path d="M3170 7135 c-12 -14 -11 -18 1 -26 25 -15 41 -10 37 13 -4 27 -21 33
-38 13z"/>
<path d="M4090 7135 c0 -9 5 -15 11 -13 6 2 11 8 11 13 0 5 -5 11 -11 13 -6 2
-11 -4 -11 -13z"/>
<path d="M6803 7120 c-139 -80 -147 -272 -16 -364 55 -38 141 -47 208 -21 104
39 162 171 120 272 -55 132 -192 182 -312 113z"/>
<path d="M2925 7116 c-59 -27 -77 -46 -104 -106 -66 -144 39 -302 199 -302
117 0 191 68 219 201 10 47 9 56 -6 73 -14 16 -15 22 -4 40 10 17 10 23 -5 39
-10 11 -25 17 -34 14 -10 -3 -23 2 -31 11 -23 27 -90 54 -139 54 -27 0 -65
-10 -95 -24z"/>
<path d="M5429 7119 c-15 -15 -18 -24 -10 -32 8 -8 15 -5 27 11 18 26 32 28
41 6 3 -8 -4 -25 -17 -39 -12 -13 -19 -29 -15 -35 9 -14 64 47 65 72 0 18 -28
38 -54 38 -9 0 -25 -9 -37 -21z"/>
<path d="M1380 7094 c-81 -35 -132 -114 -132 -205 0 -182 214 -280 352 -162
94 81 107 212 30 304 -58 71 -168 98 -250 63z"/>
<path d="M4015 7100 c-4 -6 -3 -16 3 -22 6 -6 12 -6 17 2 4 6 3 16 -3 22 -6 6
-12 6 -17 -2z"/>
<path d="M4177 7094 c-8 -8 1 -24 14 -24 5 0 9 7 9 15 0 15 -12 20 -23 9z"/>
<path d="M5314 7065 c-8 -13 -13 -29 -9 -35 11 -17 23 -11 27 13 2 14 10 22
23 22 20 0 21 -6 9 -57 -5 -21 -3 -28 8 -28 18 0 38 73 26 94 -14 25 -65 20
-84 -9z"/>
<path d="M8725 7074 c-79 -43 -125 -115 -125 -199 0 -199 246 -291 378 -140
42 47 53 77 54 143 1 68 -33 134 -90 175 -38 27 -53 32 -115 34 -52 3 -80 -1
-102 -13z"/>
<path d="M3505 7071 c-113 -28 -187 -134 -171 -244 21 -139 176 -226 301 -168
169 77 175 311 10 394 -39 19 -102 27 -140 18z"/>
<path d="M6318 7066 c-57 -21 -85 -42 -116 -88 -24 -36 -27 -51 -27 -119 0
-70 3 -81 30 -121 89 -126 278 -124 363 4 24 36 27 51 27 119 0 70 -3 81 -30
121 -55 78 -165 115 -247 84z"/>
<path d="M9229 7057 c-68 -36 -103 -93 -107 -176 -3 -54 0 -76 16 -107 40 -78
113 -124 197 -124 228 0 297 306 93 411 -54 27 -142 26 -199 -4z"/>
<path d="M4010 7054 c-80 -35 -130 -111 -130 -199 0 -122 93 -215 215 -215
234 0 298 324 83 414 -47 20 -122 20 -168 0z"/>
<path d="M727 7036 c-97 -26 -164 -125 -155 -230 14 -173 224 -258 354 -143
57 49 77 99 72 178 -3 56 -9 76 -33 111 -52 73 -150 107 -238 84z"/>
<path d="M7305 7014 c-58 -21 -112 -79 -132 -141 -14 -44 -15 -60 -4 -107 22
-97 116 -176 211 -176 53 0 118 31 159 75 84 91 81 208 -8 296 -66 67 -141 84
-226 53z"/>
<path d="M2665 7000 c-17 -19 -17 -20 6 -29 20 -7 25 -5 27 11 6 31 -12 41
-33 18z"/>
<path d="M5457 7003 c-12 -11 -8 -23 8 -23 8 0 15 7 15 15 0 16 -12 20 -23 8z"/>
<path d="M2424 6981 c-80 -37 -125 -106 -125 -195 0 -63 11 -94 52 -140 83
-95 223 -103 312 -18 40 37 57 74 68 143 8 48 7 64 -5 81 -11 15 -12 25 -4 38
9 14 8 22 -6 35 -9 9 -23 15 -31 12 -7 -3 -19 1 -27 10 -41 50 -161 67 -234
34z"/>
<path d="M90 6970 c-24 -24 -26 -50 -5 -50 8 0 15 9 15 19 0 22 23 34 38 19 7
-7 7 -18 0 -34 -11 -23 -3 -63 9 -50 7 7 10 17 20 67 9 49 -39 67 -77 29z"/>
<path d="M11255 6981 c-94 -24 -155 -92 -171 -190 -4 -23 -9 -39 -12 -37 -9 9
-42 -14 -42 -29 0 -17 16 -20 25 -5 10 17 35 11 35 -8 0 -11 -11 -24 -25 -30
-14 -6 -25 -18 -25 -27 0 -19 5 -19 35 1 23 15 25 14 62 -27 74 -82 169 -101
264 -51 40 21 62 40 84 78 l30 50 2 -48 c1 -62 41 -130 95 -165 60 -40 155
-44 221 -10 34 18 44 20 33 8 -20 -22 -46 -96 -46 -130 0 -113 107 -221 220
-221 110 0 220 109 220 218 0 50 -26 107 -67 151 l-43 45 37 39 38 39 -53 -26
c-38 -19 -72 -28 -120 -30 -105 -4 -107 -3 -107 91 0 70 -3 84 -28 121 -41 63
-97 95 -172 100 -55 4 -70 0 -114 -24 -33 -17 -62 -44 -81 -72 -26 -39 -30
-42 -30 -21 0 130 -141 242 -265 210z m665 -435 c0 -2 -8 -10 -17 -17 -16 -13
-17 -12 -4 4 13 16 21 21 21 13z"/>
<path d="M313 6965 c-8 -22 4 -30 22 -15 17 14 45 7 45 -12 0 -7 -14 -21 -30
-30 -29 -16 -40 -38 -21 -38 6 0 26 9 45 21 60 35 42 89 -29 89 -14 0 -28 -7
-32 -15z"/>
<path d="M8305 6971 c-122 -30 -194 -147 -164 -267 17 -65 87 -138 149 -154
166 -44 315 103 270 269 -17 62 -80 127 -143 146 -55 16 -66 17 -112 6z"/>
<path d="M5377 6963 c-12 -11 -8 -23 8 -23 8 0 15 7 15 15 0 16 -12 20 -23 8z"/>
<path d="M1805 6936 c-59 -27 -77 -46 -104 -106 -35 -77 -23 -164 31 -226 126
-143 348 -80 382 109 11 58 -16 135 -61 179 -73 71 -159 86 -248 44z"/>
<path d="M5540 6944 c0 -9 5 -14 12 -12 18 6 21 28 4 28 -9 0 -16 -7 -16 -16z"/>
<path d="M12410 6937 c-155 -82 -157 -296 -5 -385 58 -33 164 -28 223 10 96
64 126 197 66 294 -58 95 -188 132 -284 81z"/>
<path d="M4525 6921 c-173 -45 -230 -250 -102 -368 53 -49 103 -67 167 -61
176 17 261 228 144 358 -55 61 -138 89 -209 71z"/>
<path d="M5358 6910 c-113 -60 -149 -202 -79 -312 39 -61 88 -89 164 -95 85
-7 158 30 202 102 61 99 32 225 -69 293 -43 28 -56 32 -115 32 -45 -1 -77 -7
-103 -20z"/>
<path d="M226 6903 c-11 -11 -6 -23 9 -23 8 0 15 4 15 9 0 13 -16 22 -24 14z"/>
<path d="M142 6849 c2 -6 8 -10 13 -10 5 0 11 4 13 10 2 6 -4 11 -13 11 -9 0
-15 -5 -13 -11z"/>
<path d="M310 6845 c0 -9 5 -15 11 -13 6 2 11 8 11 13 0 5 -5 11 -11 13 -6 2
-11 -4 -11 -13z"/>
<path d="M9985 6844 c-86 -47 -131 -126 -123 -218 15 -186 248 -263 373 -125
45 50 56 80 57 147 1 69 -34 137 -91 177 -36 25 -53 30 -114 32 -52 2 -80 -1
-102 -13z"/>
<path d="M6063 6843 c-15 -5 -18 -33 -4 -33 5 0 16 -3 25 -6 12 -5 16 0 16 20
0 25 -10 30 -37 19z"/>
<path d="M7731 6824 c-123 -62 -157 -221 -69 -328 113 -138 337 -87 378 85 24
100 -21 198 -112 243 -69 34 -128 34 -197 0z"/>
<path d="M5837 6830 c-75 -23 -147 -121 -147 -199 0 -83 49 -165 123 -202 32
-17 54 -20 108 -17 112 6 177 65 205 187 12 50 12 59 -4 89 -15 28 -15 34 -2
42 12 7 11 12 -5 29 -10 12 -23 20 -29 19 -6 -1 -33 11 -60 27 -53 31 -136 42
-189 25z"/>
<path d="M150 6819 c-48 -19 -93 -62 -116 -113 -38 -83 -29 -161 28 -230 86
-104 261 -101 339 7 59 81 60 176 2 259 -48 71 -173 109 -253 77z"/>
<path d="M6703 6696 c-154 -49 -208 -226 -106 -346 86 -100 226 -107 318 -15
121 120 60 329 -107 364 -58 13 -52 13 -105 -3z"/>
<path d="M1180 6685 c-155 -70 -178 -283 -42 -380 58 -40 158 -48 219 -17 153
79 165 284 22 379 -51 34 -145 42 -199 18z"/>
<path d="M10475 6691 c-93 -23 -155 -92 -171 -189 -14 -86 50 -190 138 -227
90 -37 207 0 259 83 l29 46 0 -35 c1 -96 102 -199 197 -199 l27 0 -22 -20
c-23 -22 -28 -45 -12 -55 6 -3 15 6 20 20 11 28 49 32 41 4 -12 -44 -13 -71
-2 -68 7 3 12 8 12 12 -1 4 5 20 13 36 13 25 13 31 0 49 -18 26 1 42 20 16 13
-17 14 -17 27 4 8 12 19 22 26 22 23 0 24 -20 2 -50 -34 -45 -11 -59 24 -14
32 39 32 63 -1 80 l-22 11 21 19 c67 60 80 194 26 270 -59 85 -164 117 -262
80 -43 -17 -114 -84 -116 -109 0 -6 -7 13 -15 43 -8 30 -27 71 -43 90 -51 63
-145 99 -216 81z"/>
<path d="M10940 6666 c0 -9 7 -16 16 -16 17 0 14 22 -4 28 -7 2 -12 -3 -12
-12z"/>
<path d="M9560 6659 c-77 -32 -140 -123 -140 -205 0 -59 45 -142 98 -179 39
-27 51 -30 121 -30 68 0 83 3 119 27 129 86 129 280 0 365 -32 22 -55 28 -107
30 -36 2 -77 -2 -91 -8z"/>
<path d="M3166 6634 c-9 -8 -16 -20 -16 -25 0 -15 27 -10 34 6 3 8 12 15 20
15 26 0 29 -21 6 -45 -14 -15 -20 -30 -16 -41 6 -15 11 -12 36 17 32 37 37 58
18 77 -17 17 -64 15 -82 -4z"/>
<path d="M10866 6633 c-11 -11 -6 -23 9 -23 8 0 15 4 15 9 0 13 -16 22 -24 14z"/>
<path d="M5032 6617 c-94 -34 -147 -118 -140 -222 7 -119 93 -199 213 -199
117 0 205 80 213 194 6 76 -11 124 -62 174 -60 61 -146 81 -224 53z"/>
<path d="M11025 6621 c-7 -12 12 -24 25 -16 11 7 4 25 -10 25 -5 0 -11 -4 -15
-9z"/>
<path d="M3626 6605 c-111 -39 -171 -143 -146 -253 16 -71 84 -144 150 -162
167 -44 323 115 270 275 -20 60 -84 122 -143 140 -61 18 -80 18 -131 0z"/>
<path d="M2160 6599 c-160 -67 -184 -284 -42 -384 40 -27 51 -30 121 -30 68 0
83 3 119 27 128 85 130 274 4 362 -36 25 -54 31 -110 33 -37 2 -78 -2 -92 -8z"/>
<path d="M3060 6590 c-11 -11 -20 -27 -20 -35 0 -23 27 -18 33 6 4 14 12 19
24 17 10 -2 16 -11 14 -19 -13 -45 -13 -71 -1 -67 7 2 15 11 16 19 2 7 7 26
10 42 12 52 -37 76 -76 37z"/>
<path d="M3290 6585 c-18 -21 -4 -32 21 -17 11 7 24 10 29 7 18 -11 10 -30
-20 -47 -29 -16 -40 -38 -21 -38 22 0 81 43 81 59 0 41 -65 67 -90 36z"/>
<path d="M7216 6565 c-56 -20 -87 -45 -119 -98 -55 -88 -33 -207 50 -276 116
-96 294 -45 342 98 39 119 -35 254 -156 282 -51 12 -71 11 -117 -6z"/>
<path d="M9086 6565 c-80 -28 -137 -111 -137 -199 0 -185 190 -284 343 -179
89 61 115 205 52 296 -56 80 -165 115 -258 82z"/>
<path d="M635 6554 c-190 -59 -203 -322 -20 -405 22 -10 50 -19 61 -19 12 0
24 -7 28 -15 5 -13 9 -12 26 5 37 37 54 6 20 -37 -30 -39 -12 -49 21 -11 18
21 28 41 25 55 -2 17 5 28 29 42 41 24 86 99 92 154 18 156 -131 278 -282 231z"/>
<path d="M4090 6554 c-81 -35 -130 -111 -130 -200 0 -108 64 -188 169 -214
171 -41 318 147 240 307 -49 101 -178 151 -279 107z"/>
<path d="M8606 6560 c-86 -26 -156 -120 -156 -210 0 -91 69 -180 158 -206 84
-25 150 -7 212 56 38 37 50 58 60 102 36 162 -115 305 -274 258z"/>
<path d="M8106 6518 c-56 -15 -131 -91 -146 -148 -36 -133 54 -265 190 -278
101 -9 198 57 226 155 48 165 -103 317 -270 271z"/>
<path d="M3192 6509 c2 -6 8 -10 13 -10 5 0 11 4 13 10 2 6 -4 11 -13 11 -9 0
-15 -5 -13 -11z"/>
<path d="M6205 6509 c-48 -14 -111 -74 -130 -124 -26 -66 -17 -153 21 -207
114 -163 378 -95 392 101 6 77 -11 125 -62 175 -59 59 -140 79 -221 55z"/>
<path d="M2908 6486 c-13 -10 -15 -15 -6 -24 20 -20 38 -13 38 13 0 28 -7 30
-32 11z"/>
<path d="M11407 6486 c-94 -35 -147 -110 -147 -208 0 -103 79 -196 181 -213
l41 -7 -31 -32 c-103 -107 -73 -278 63 -348 31 -16 53 -19 106 -16 78 4 124
29 167 92 38 53 45 154 15 212 -36 71 -113 124 -178 124 l-26 0 32 37 c43 49
60 92 60 153 0 57 -20 113 -53 148 -53 58 -159 84 -230 58z"/>
<path d="M12423 6483 c-78 -27 -141 -141 -127 -228 19 -115 101 -187 214 -187
125 0 220 96 220 222 0 42 -38 127 -71 157 -54 50 -155 65 -236 36z"/>
<path d="M2682 6477 c-87 -33 -141 -111 -142 -205 0 -128 86 -216 215 -217
103 0 183 62 206 162 18 77 28 93 22 37 -7 -67 10 -117 60 -171 123 -134 338
-65 371 119 22 124 -90 248 -225 248 -55 0 -136 -46 -167 -94 -14 -22 -27 -43
-29 -45 -4 -5 -43 40 -43 49 0 3 5 11 12 18 9 9 7 16 -7 32 -10 11 -21 17 -26
15 -4 -3 -30 9 -57 25 -56 36 -137 47 -190 27z"/>
<path d="M3112 6468 c6 -18 28 -21 28 -4 0 9 -7 16 -16 16 -9 0 -14 -5 -12
-12z"/>
<path d="M3286 6473 c-11 -11 -6 -23 9 -23 8 0 15 4 15 9 0 13 -16 22 -24 14z"/>
<path d="M4652 6468 c-14 -14 -16 -38 -3 -38 5 0 14 7 21 15 14 17 36 20 44 6
3 -4 -3 -19 -14 -31 -20 -23 -27 -51 -12 -49 16 1 53 60 50 81 -2 18 -10 24
-38 26 -19 2 -41 -3 -48 -10z"/>
<path d="M1674 6431 c-53 -24 -109 -91 -123 -147 -40 -158 106 -303 265 -263
65 17 138 87 154 149 47 177 -132 336 -296 261z"/>
<path d="M4552 6424 c-12 -8 -22 -24 -22 -35 0 -25 20 -25 27 1 3 12 14 20 25
20 16 0 19 -4 13 -22 -11 -36 -11 -61 0 -65 6 -2 17 17 24 42 11 36 11 48 1
60 -16 19 -40 19 -68 -1z"/>
<path d="M4770 6415 c-18 -22 -4 -31 24 -16 24 13 46 8 46 -9 0 -5 -13 -16
-30 -25 -16 -9 -30 -22 -30 -30 0 -20 4 -19 50 10 45 28 46 32 24 63 -18 26
-65 30 -84 7z"/>
<path d="M9900 6382 c0 -4 14 -22 31 -40 l31 -33 -30 -27 c-144 -135 -49 -375
148 -375 170 0 277 192 183 330 -14 20 -36 45 -50 56 l-24 20 37 38 c21 22 36
39 34 39 -3 0 -27 -11 -54 -25 -69 -35 -179 -35 -253 0 -29 13 -53 21 -53 17z"/>
<path d="M4676 6341 c-3 -5 1 -11 9 -15 15 -6 29 7 18 18 -9 9 -21 8 -27 -3z"/>
<path d="M4600 6294 c0 -9 5 -14 12 -12 18 6 21 28 4 28 -9 0 -16 -7 -16 -16z"/>
<path d="M4767 6303 c-12 -11 -8 -23 8 -23 8 0 15 7 15 15 0 16 -12 20 -23 8z"/>
<path d="M5662 6283 c-78 -27 -142 -140 -128 -226 19 -115 104 -189 216 -189
156 0 264 159 201 297 -53 116 -165 162 -289 118z"/>
<path d="M4606 6265 c-157 -56 -186 -282 -49 -379 144 -101 342 2 343 178 0
150 -150 253 -294 201z"/>
<path d="M7697 6256 c-93 -34 -147 -110 -147 -206 0 -124 97 -220 222 -220 53
0 138 48 173 98 27 39 30 51 30 121 0 68 -3 83 -27 119 -53 79 -167 119 -251
88z"/>
<path d="M6695 6228 c-78 -27 -145 -119 -145 -198 0 -126 95 -222 220 -222
146 0 247 134 206 275 -34 117 -166 185 -281 145z"/>
<path d="M1161 6204 c-202 -101 -127 -407 99 -407 124 0 214 91 215 219 0 83
-38 147 -114 186 -70 37 -129 37 -200 2z"/>
<path d="M115 6167 c-152 -86 -150 -302 5 -384 119 -63 279 11 311 144 21 90
-28 197 -110 240 -60 31 -150 32 -206 0z"/>
<path d="M5210 6181 c-107 -35 -160 -105 -160 -211 0 -126 94 -220 222 -220
46 0 133 45 162 84 80 107 48 266 -66 324 -51 26 -118 36 -158 23z"/>
<path d="M9503 6150 c-79 -18 -153 -97 -166 -175 -26 -159 132 -294 284 -244
119 40 181 182 130 295 -26 57 -92 110 -153 123 -54 12 -50 12 -95 1z"/>
<path d="M10481 6138 c-53 -26 -95 -82 -111 -148 -23 -95 35 -208 126 -246
118 -49 262 22 295 146 47 179 -142 331 -310 248z"/>
<path d="M11160 6145 c-9 -11 -10 -19 -3 -26 7 -7 14 -5 22 5 14 17 41 10 41
-10 0 -8 -11 -19 -24 -24 -28 -10 -40 -26 -31 -40 5 -8 12 -7 22 2 8 7 25 17
37 23 30 15 32 50 4 69 -28 20 -52 20 -68 1z"/>
<path d="M2315 6133 c-136 -31 -212 -156 -171 -281 32 -96 127 -159 225 -150
178 17 260 222 144 358 -48 55 -136 88 -198 73z"/>
<path d="M3565 6126 c-54 -20 -120 -92 -136 -147 -36 -134 72 -274 211 -273
171 1 272 182 184 331 -47 81 -168 122 -259 89z"/>
<path d="M8855 6111 c-142 -66 -169 -255 -50 -359 47 -42 77 -53 141 -53 64 0
110 18 153 62 44 44 61 86 61 154 0 157 -163 262 -305 196z"/>
<path d="M618 6106 c-14 -7 -24 -22 -26 -39 -4 -34 14 -36 22 -1 8 31 43 30
38 -1 -7 -44 -7 -58 3 -62 13 -4 37 71 29 90 -8 21 -38 27 -66 13z"/>
<path d="M4121 6110 c-92 -22 -161 -111 -161 -209 1 -138 108 -233 244 -217
147 17 232 184 161 315 -31 56 -84 98 -142 112 -44 10 -56 10 -102 -1z"/>
<path d="M835 6097 c-27 -21 -10 -41 19 -22 20 14 25 14 35 1 10 -12 8 -18
-13 -31 -28 -19 -59 -72 -50 -86 8 -14 26 1 20 17 -3 9 9 23 34 39 29 18 40
32 40 50 0 39 -49 58 -85 32z"/>
<path d="M7221 6098 c-55 -9 -103 -42 -138 -92 -38 -53 -45 -154 -15 -212 21
-40 61 -82 97 -102 l20 -11 -20 -1 c-34 -1 -98 -35 -133 -71 -18 -19 -39 -55
-47 -84 -42 -140 59 -275 207 -275 208 0 296 259 131 386 l-40 31 43 11 c87
23 153 111 154 205 0 140 -119 240 -259 215z"/>
<path d="M8307 6095 c-194 -50 -224 -310 -46 -399 102 -50 222 -20 280 72 107
169 -41 377 -234 327z"/>
<path d="M12220 6095 c-10 -12 -9 -16 6 -21 11 -4 22 -9 27 -11 4 -2 7 7 7 21
0 29 -20 35 -40 11z"/>
<path d="M11984 6086 c-82 -36 -143 -147 -128 -233 24 -139 167 -219 299 -168
50 19 111 82 124 130 8 29 8 29 16 -17 11 -70 52 -128 114 -162 46 -25 61 -28
117 -24 50 3 73 10 106 34 50 34 98 119 98 172 0 126 -94 221 -219 222 -97 0
-172 -53 -208 -147 l-14 -38 6 37 c4 27 1 45 -12 64 -13 20 -14 29 -5 32 6 2
12 8 12 14 0 17 -30 40 -45 35 -7 -3 -19 1 -27 10 -38 47 -167 68 -234 39z"/>
<path d="M11062 6068 c6 -18 28 -21 28 -4 0 9 -7 16 -16 16 -9 0 -14 -5 -12
-12z"/>
<path d="M6196 6048 c-53 -15 -131 -91 -145 -143 -20 -72 -5 -151 35 -196 17
-18 16 -19 -27 -19 -133 -1 -244 -141 -210 -266 32 -120 143 -190 259 -164 42
9 65 22 102 58 74 72 90 159 45 248 -14 27 -25 50 -25 52 0 1 12 2 28 2 91 0
181 67 209 156 51 162 -105 318 -271 272z"/>
<path d="M10987 6033 c-12 -11 -8 -23 8 -23 8 0 15 7 15 15 0 16 -12 20 -23 8z"/>
<path d="M737 6024 c-8 -8 1 -24 14 -24 5 0 9 7 9 15 0 15 -12 20 -23 9z"/>
<path d="M11152 6019 c2 -6 8 -10 13 -10 5 0 11 4 13 10 2 6 -4 11 -13 11 -9
0 -15 -5 -13 -11z"/>
<path d="M10993 5994 c-81 -30 -143 -123 -143 -215 0 -57 46 -137 98 -170 188
-119 413 79 315 276 -49 97 -169 146 -270 109z"/>
<path d="M655 5981 c-7 -12 12 -24 25 -16 11 7 4 25 -10 25 -5 0 -11 -4 -15
-9z"/>
<path d="M690 5951 c-105 -34 -163 -109 -163 -211 0 -132 114 -234 242 -216
176 24 252 239 129 365 -18 18 -44 39 -58 46 -34 18 -118 27 -150 16z"/>
<path d="M1708 5930 c-115 -61 -150 -206 -75 -317 112 -164 370 -96 393 103
10 85 -39 174 -118 215 -50 26 -150 25 -200 -1z"/>
<path d="M2750 5799 c-74 -30 -140 -123 -140 -198 0 -89 57 -177 135 -206 64
-25 151 -17 204 18 96 64 125 196 65 294 -52 83 -176 127 -264 92z"/>
<path d="M10100 5794 c-97 -35 -141 -84 -164 -181 -8 -32 -15 -53 -15 -46 -2
21 -63 84 -102 104 -52 26 -139 25 -196 -2 -124 -60 -155 -227 -62 -333 127
-144 357 -71 378 121 l6 58 14 -33 c32 -75 139 -131 225 -116 56 9 86 26 129
73 35 39 57 92 57 141 0 72 -52 160 -113 192 -40 20 -129 32 -157 22z"/>
<path d="M6523 5728 l35 -43 -25 -19 c-35 -26 -73 -112 -73 -166 1 -128 127
-234 255 -213 52 8 125 60 151 107 49 87 38 177 -32 255 l-43 48 29 28 c42 40
37 48 -12 22 -31 -15 -65 -23 -120 -25 -66 -4 -85 0 -134 22 -31 14 -58 26
-61 26 -2 0 11 -19 30 -42z"/>
<path d="M1196 5735 c-76 -27 -146 -124 -146 -203 0 -91 79 -190 168 -212 109
-26 223 37 257 141 58 174 -107 336 -279 274z"/>
<path d="M7646 5738 c-56 -15 -131 -91 -146 -148 -36 -133 54 -265 190 -278
101 -9 198 57 226 155 48 165 -103 317 -270 271z"/>
<path d="M3224 5722 c-86 -48 -124 -107 -124 -195 0 -231 314 -302 411 -92 50
108 -3 243 -113 289 -49 21 -135 20 -174 -2z"/>
<path d="M4917 5726 c-101 -27 -164 -121 -155 -230 18 -215 310 -267 410 -73
29 58 23 159 -15 215 -50 76 -148 112 -240 88z"/>
<path d="M5460 5719 c-160 -67 -184 -284 -42 -384 40 -27 51 -30 122 -30 71 0
82 3 122 30 125 88 125 271 0 359 -36 25 -54 31 -110 33 -37 2 -78 -2 -92 -8z"/>
<path d="M9150 5709 c-75 -31 -140 -123 -140 -198 0 -89 57 -177 135 -206 64
-25 151 -17 204 18 128 85 128 279 -1 364 -32 22 -55 28 -107 30 -36 2 -77 -2
-91 -8z"/>
<path d="M4362 5689 c-207 -103 -134 -408 97 -409 105 0 186 65 211 169 41
172 -148 319 -308 240z"/>
<path d="M3824 5689 c-52 -12 -121 -71 -145 -123 -66 -144 45 -307 207 -306
122 1 227 130 207 255 -3 20 -20 58 -37 83 -51 76 -142 112 -232 91z"/>
<path d="M8107 5686 c-100 -37 -152 -116 -145 -221 5 -85 41 -139 117 -177 67
-35 119 -36 186 -4 91 42 131 112 123 217 -3 45 -11 69 -34 102 -54 77 -164
114 -247 83z"/>
<path d="M8628 5691 c-122 -39 -181 -197 -118 -311 36 -64 96 -103 169 -108
105 -8 175 32 217 123 32 67 31 119 -3 186 -39 76 -94 112 -176 116 -34 1 -74
-2 -89 -6z"/>
<path d="M2196 5646 c-159 -60 -186 -286 -44 -382 59 -40 117 -49 184 -29 175
52 208 289 55 391 -49 32 -138 41 -195 20z"/>
<path d="M11405 5649 c-113 -33 -177 -183 -126 -294 18 -41 91 -115 113 -115
7 0 2 -7 -10 -16 -23 -16 -30 -44 -12 -44 6 0 13 7 16 15 8 19 44 20 44 1 0
-7 -7 -19 -15 -26 -15 -13 -21 -50 -7 -49 18 1 54 61 48 82 -4 20 -1 22 37 24
60 4 127 42 162 91 40 57 48 158 17 218 -52 101 -158 146 -267 113z"/>
<path d="M11881 5624 c-154 -77 -157 -304 -6 -382 l34 -17 -62 0 c-78 0 -138
-31 -182 -93 -27 -40 -30 -51 -30 -122 0 -71 3 -82 30 -122 89 -125 271 -125
360 0 27 40 30 51 30 122 0 71 -3 82 -30 122 -17 23 -48 52 -68 64 l-37 21 57
0 c127 0 217 90 218 219 0 83 -38 147 -114 186 -70 37 -129 37 -200 2z"/>
<path d="M10540 5631 c-104 -32 -162 -108 -162 -211 0 -227 305 -302 406 -99
34 69 34 128 1 196 -46 91 -154 141 -245 114z"/>
<path d="M12355 5585 c-54 -19 -120 -91 -135 -146 -44 -164 105 -314 269 -269
66 18 135 92 151 161 25 114 -43 227 -155 258 -52 14 -81 13 -130 -4z"/>
<path d="M256 5575 c-154 -55 -202 -234 -94 -351 156 -169 427 -17 368 206
-16 61 -90 132 -153 148 -58 15 -72 15 -121 -3z"/>
<path d="M1598 5446 c-80 -29 -129 -80 -148 -158 -36 -142 92 -284 238 -264
132 18 217 146 182 275 -17 62 -80 127 -143 146 -61 18 -81 18 -129 1z"/>
<path d="M10982 5391 c-55 -14 -106 -55 -136 -110 -25 -46 -28 -61 -24 -117 5
-84 41 -138 117 -176 86 -44 166 -35 239 27 22 20 47 51 53 70 7 19 18 35 25
35 6 0 14 9 17 20 3 12 14 20 27 20 19 0 21 -4 15 -22 -11 -36 -11 -61 0 -65
13 -4 37 71 29 91 -8 21 -39 29 -63 17 -28 -15 -28 -16 -33 34 -14 118 -146
206 -266 176z"/>
<path d="M862 5370 c-139 -56 -181 -250 -76 -354 94 -92 242 -88 322 10 94
114 54 282 -80 338 -41 17 -130 20 -166 6z"/>
<path d="M2025 5170 c-81 -25 -148 -118 -148 -205 1 -129 91 -220 218 -219
165 1 263 166 188 315 -47 91 -160 139 -258 109z"/>
<path d="M11490 5165 c-18 -21 -4 -32 21 -17 16 10 24 10 35 1 17 -14 10 -27
-22 -39 -13 -5 -24 -16 -24 -25 0 -19 2 -19 44 6 25 15 36 28 36 45 0 39 -64
60 -90 29z"/>
<path d="M10751 5136 c-10 -12 -8 -17 8 -25 28 -15 31 -14 31 14 0 28 -21 33
-39 11z"/>
<path d="M10520 5125 c-90 -41 -148 -141 -134 -233 27 -180 260 -246 381 -108
17 19 35 49 41 68 16 52 24 128 14 128 -16 0 -22 30 -10 49 9 15 8 22 -5 35
-9 10 -22 16 -29 14 -7 -1 -32 10 -55 26 -53 35 -149 45 -203 21z"/>
<path d="M12249 5126 c-59 -21 -96 -53 -123 -108 -45 -90 -30 -177 42 -251
102 -104 279 -74 344 58 43 86 28 174 -41 246 -64 66 -140 85 -222 55z"/>
<path d="M11392 5088 c6 -18 28 -21 28 -4 0 9 -7 16 -16 16 -9 0 -14 -5 -12
-12z"/>
<path d="M11315 5051 c-7 -12 12 -24 25 -16 11 7 4 25 -10 25 -5 0 -11 -4 -15
-9z"/>
<path d="M11486 5053 c-11 -11 -6 -23 9 -23 8 0 15 4 15 9 0 13 -16 22 -24 14z"/>
<path d="M355 5026 c-150 -65 -182 -258 -60 -364 48 -43 73 -52 144 -52 73 0
132 29 174 88 42 57 50 157 19 218 -53 103 -179 153 -277 110z"/>
<path d="M11314 5011 c-91 -41 -149 -157 -125 -247 44 -165 234 -225 357 -112
54 50 78 110 72 178 -14 146 -172 241 -304 181z"/>
<path d="M1445 4969 c-113 -33 -177 -183 -126 -294 39 -85 108 -128 203 -127
72 0 136 35 175 94 38 56 44 157 15 215 -50 98 -159 144 -267 112z"/>
<path d="M902 4895 c-60 -26 -94 -57 -118 -109 -89 -192 107 -383 294 -287
103 53 146 186 93 288 -50 99 -175 149 -269 108z"/>
<path d="M11735 4736 c-41 -18 -95 -73 -112 -115 -17 -39 -19 -124 -4 -162 15
-42 72 -100 116 -120 82 -37 193 -15 247 49 l26 31 28 -57 c39 -76 90 -112
172 -119 186 -17 302 181 198 335 -77 114 -252 126 -339 23 l-26 -31 -11 36
c-16 47 -63 100 -111 125 -45 22 -138 25 -184 5z"/>
<path d="M10930 4719 c-123 -49 -174 -202 -105 -314 22 -36 45 -57 85 -78 48
-25 63 -28 118 -24 45 3 74 12 102 31 46 30 90 100 97 156 12 85 -40 181 -118
220 -42 22 -135 26 -179 9z"/>
<path d="M2061 4698 c-49 -24 -96 -83 -112 -140 -24 -90 26 -201 111 -246 65
-34 161 -29 222 13 50 35 98 120 98 173 0 165 -172 273 -319 200z"/>
<path d="M10453 4653 c-76 -26 -133 -116 -133 -207 0 -88 70 -177 160 -203
l55 -16 -35 -15 c-52 -21 -174 -13 -229 16 -24 13 -45 21 -47 19 -2 -2 11 -20
28 -41 l31 -37 -31 -32 c-51 -54 -65 -92 -60 -167 4 -77 32 -128 94 -170 52
-34 154 -40 210 -12 141 73 167 257 51 358 l-35 32 32 31 c18 17 38 31 44 31
29 0 94 43 121 81 131 180 -44 407 -256 332z"/>
<path d="M503 4494 c-97 -36 -157 -152 -133 -256 22 -89 121 -168 212 -168 51
0 117 31 157 75 99 108 69 274 -62 342 -43 22 -125 25 -174 7z"/>
<path d="M1677 4476 c-94 -35 -147 -110 -147 -210 0 -193 229 -287 366 -150
23 22 47 58 54 79 32 96 -15 218 -100 262 -58 30 -125 37 -173 19z"/>
<path d="M1076 4456 c-60 -22 -114 -82 -133 -145 -24 -83 -6 -149 57 -211 180
-181 466 43 336 264 -50 85 -167 126 -260 92z"/>
<path d="M11603 4413 c-20 -7 -15 -30 7 -36 23 -6 34 7 26 28 -6 15 -12 17
-33 8z"/>
<path d="M11354 4391 c-103 -47 -153 -182 -105 -286 22 -49 77 -99 126 -115
60 -20 146 -9 194 24 53 37 76 75 94 156 14 56 14 67 1 81 -17 18 -18 45 -3
54 13 8 -19 47 -35 42 -5 -2 -35 12 -65 30 -45 27 -65 33 -110 33 -33 0 -73
-8 -97 -19z"/>
<path d="M11893 4215 c-59 -30 -97 -80 -112 -145 -11 -51 0 -120 26 -159 22
-34 75 -81 90 -81 28 0 11 -19 -22 -26 -63 -11 -147 1 -204 29 -57 29 -57 25
-2 -35 l24 -28 -27 -21 c-74 -58 -94 -185 -43 -272 15 -26 47 -60 69 -75 36
-24 51 -27 119 -27 70 0 82 3 121 30 50 35 98 120 98 173 0 60 -23 115 -67
161 -39 40 -41 45 -25 57 9 7 36 14 60 14 118 1 212 96 212 215 0 164 -168
264 -317 190z"/>
<path d="M2175 4214 c-196 -101 -148 -389 67 -411 67 -7 118 8 164 50 57 49
77 99 72 178 -4 83 -39 140 -107 176 -53 28 -149 32 -196 7z"/>
<path d="M10836 4145 c-82 -29 -139 -114 -139 -206 2 -146 136 -246 276 -205
190 55 212 319 33 402 -57 27 -112 30 -170 9z"/>
<path d="M1372 4099 c-74 -37 -122 -115 -122 -200 0 -49 42 -132 82 -163 19
-14 52 -32 74 -40 l39 -15 -66 0 c-54 -1 -77 4 -123 27 -31 16 -56 27 -56 24
0 -2 14 -22 31 -44 l32 -39 -31 -32 c-41 -43 -62 -89 -62 -132 l0 -37 -41 35
c-108 93 -270 61 -333 -65 -34 -68 -34 -128 0 -196 95 -190 369 -142 408 72
l7 38 27 -25 c82 -79 226 -74 304 9 82 88 76 231 -15 311 l-35 31 21 19 c12
10 40 27 61 38 75 38 124 136 111 222 -9 59 -60 132 -114 160 -58 30 -140 31
-199 2z"/>
<path d="M730 4014 c-46 -20 -87 -60 -112 -108 -30 -58 -23 -159 15 -212 39
-57 89 -87 152 -92 79 -6 117 4 165 45 157 134 67 384 -137 383 -26 -1 -64 -8
-83 -16z"/>
<path d="M11497 3879 c-14 -8 -16 -14 -6 -25 18 -22 39 -17 39 11 0 27 -6 30
-33 14z"/>
<path d="M11275 3869 c-16 -4 -47 -22 -68 -40 -111 -92 -103 -265 15 -345 111
-75 256 -38 312 80 27 56 45 156 28 156 -15 0 -20 32 -8 51 11 19 -17 55 -34
44 -5 -3 -25 5 -42 18 -60 44 -132 57 -203 36z"/>
<path d="M1829 3822 c-136 -71 -158 -245 -45 -350 197 -182 483 95 309 298
-71 83 -169 102 -264 52z"/>
<path d="M2405 3750 c-83 -26 -148 -119 -148 -210 0 -124 92 -215 218 -214 68
1 106 17 153 65 127 130 43 351 -140 364 -29 3 -66 0 -83 -5z"/>
<path d="M10482 3718 c-18 -18 -15 -35 9 -41 26 -7 37 19 17 39 -11 11 -16 12
-26 2z"/>
<path d="M10235 3694 c-79 -43 -125 -115 -125 -199 0 -228 306 -297 411 -93
10 21 19 49 19 63 0 15 5 35 11 46 8 15 6 25 -11 46 -18 23 -19 28 -5 43 14
15 13 18 -3 33 -10 10 -25 17 -33 17 -8 0 -32 12 -54 27 -50 35 -161 44 -210
17z"/>
<path d="M10853 3563 c-45 -15 -94 -67 -113 -119 -16 -41 -14 -125 3 -165 32
-76 113 -129 197 -129 125 0 220 92 220 215 0 157 -151 254 -307 198z"/>
<path d="M11478 3356 c-92 -34 -139 -95 -146 -187 -6 -78 17 -138 69 -182 72
-63 155 -73 240 -29 78 39 112 93 117 180 3 60 0 73 -27 119 -52 89 -164 133
-253 99z"/>
<path d="M2212 3330 c-51 -12 -109 -56 -137 -105 -83 -140 25 -325 188 -325
61 0 144 44 180 96 34 49 46 132 27 189 -20 60 -84 122 -143 140 -55 16 -66
17 -115 5z"/>
<path d="M1669 3303 c-35 -19 -64 -43 -84 -71 -27 -39 -30 -51 -30 -121 0 -68
3 -83 27 -119 113 -171 381 -105 396 98 6 76 -11 124 -62 174 -70 70 -157 84
-247 39z"/>
<path d="M9940 3249 c-75 -31 -140 -123 -140 -198 0 -89 57 -177 135 -206 64
-25 151 -17 204 18 128 85 128 279 -1 364 -32 22 -55 28 -107 30 -36 2 -77 -2
-91 -8z"/>
<path d="M2685 3230 c-16 -5 -47 -24 -69 -42 -109 -90 -101 -265 16 -344 110
-74 249 -40 313 77 53 98 21 222 -74 285 -44 29 -134 40 -186 24z"/>
<path d="M10575 3163 c-206 -108 -140 -413 90 -413 121 0 215 94 215 215 0 85
-44 156 -122 196 -46 24 -140 25 -183 2z"/>
<path d="M1211 3084 c-134 -67 -159 -237 -51 -345 94 -94 233 -86 318 17 71
86 64 208 -15 288 -68 69 -163 84 -252 40z"/>
<path d="M11179 2966 c-59 -21 -96 -53 -123 -108 -44 -88 -29 -184 40 -251 45
-45 83 -60 149 -61 198 -1 295 226 156 364 -66 65 -142 85 -222 56z"/>
<path d="M1922 2863 c-81 -45 -122 -110 -122 -197 0 -122 94 -216 215 -216
228 0 297 306 93 411 -48 25 -141 26 -186 2z"/>
<path d="M2405 2809 c-45 -13 -105 -67 -126 -113 -54 -119 15 -269 139 -301
141 -37 272 62 272 207 0 152 -137 251 -285 207z"/>
<path d="M10255 2782 c-154 -72 -167 -284 -24 -379 31 -20 57 -28 103 -31 70
-5 119 14 170 64 91 90 74 253 -32 329 -56 38 -154 46 -217 17z"/>
<path d="M2957 2746 c-100 -37 -152 -116 -145 -221 3 -52 10 -73 34 -107 88
-125 271 -125 359 0 27 40 30 51 30 122 0 71 -3 82 -30 122 -55 78 -165 115
-248 84z"/>
<path d="M9585 2744 c-79 -43 -125 -115 -125 -199 0 -230 306 -297 412 -91 28
56 22 158 -12 210 -43 62 -94 90 -175 93 -50 2 -78 -1 -100 -13z"/>
<path d="M1550 2681 c-152 -48 -213 -199 -134 -329 53 -85 171 -125 262 -87
174 73 184 314 17 398 -38 19 -112 28 -145 18z"/>
<path d="M10830 2578 c-157 -81 -157 -305 0 -386 66 -34 162 -28 222 13 122
87 122 273 0 357 -64 44 -155 51 -222 16z"/>
<path d="M3365 2391 c-173 -44 -230 -250 -101 -369 162 -149 414 4 356 216
-13 50 -66 113 -113 135 -42 19 -104 27 -142 18z"/>
<path d="M10027 2373 c-33 -11 -58 -28 -79 -55 -77 -98 -76 -207 3 -293 89
-97 216 -98 310 -5 85 85 88 202 8 294 -63 71 -145 91 -242 59z"/>
<path d="M2451 2354 c-120 -60 -153 -210 -71 -322 106 -147 359 -84 386 95 27
180 -151 308 -315 227z"/>
<path d="M1889 2322 c-76 -39 -114 -103 -114 -186 1 -130 92 -219 221 -218
222 2 292 306 93 406 -71 35 -130 35 -200 -2z"/>
<path d="M9145 2312 c-51 -25 -79 -55 -106 -116 -40 -90 -3 -207 83 -264 36
-23 51 -27 118 -27 69 0 81 3 119 29 128 89 129 272 3 360 -56 39 -154 47
-217 18z"/>
<path d="M10535 2196 c-121 -53 -171 -193 -109 -307 102 -187 387 -128 402 84
8 101 -43 185 -134 223 -42 17 -119 17 -159 0z"/>
<path d="M3110 2165 c-10 -11 -10 -19 -2 -27 15 -15 44 -2 40 19 -4 23 -22 27
-38 8z"/>
<path d="M2859 2143 c-75 -39 -112 -93 -117 -176 -8 -130 86 -232 212 -232
105 1 197 73 211 164 3 20 10 49 15 65 7 23 5 34 -11 55 -12 15 -16 27 -10 29
6 2 11 10 11 19 0 19 -27 46 -40 38 -5 -3 -25 5 -42 18 -73 54 -148 60 -229
20z"/>
<path d="M9604 2082 c-22 -11 -54 -36 -71 -56 -120 -146 -20 -356 168 -356 44
0 65 6 109 33 136 81 141 277 8 364 -54 36 -153 43 -214 15z"/>
<path d="M3706 2055 c-82 -29 -139 -114 -139 -206 2 -146 136 -246 276 -205
90 26 157 115 157 208 0 47 -36 133 -66 160 -58 52 -154 70 -228 43z"/>
<path d="M2214 1951 c-123 -56 -165 -213 -88 -324 97 -137 313 -111 378 45 74
177 -115 359 -290 279z"/>
<path d="M8702 1957 c-52 -19 -103 -66 -124 -115 -30 -67 -22 -157 18 -214 88
-126 271 -125 360 3 26 38 29 50 29 120 0 70 -3 81 -30 121 -55 79 -165 116
-253 85z"/>
<path d="M10165 1841 c-113 -28 -187 -134 -171 -244 17 -111 120 -194 230
-185 73 6 138 46 173 106 49 84 32 204 -39 268 -51 47 -133 70 -193 55z"/>
<path d="M3225 1793 c-78 -41 -125 -114 -125 -198 0 -230 306 -297 412 -91 31
60 23 157 -17 213 -43 60 -108 93 -181 93 -34 -1 -72 -8 -89 -17z"/>
<path d="M4135 1791 c-93 -42 -151 -155 -126 -247 32 -120 143 -190 259 -164
71 16 144 84 162 150 47 177 -132 335 -295 261z"/>
<path d="M9195 1736 c-83 -36 -134 -113 -135 -202 0 -108 65 -189 170 -213
132 -30 260 74 260 210 -1 93 -52 170 -137 206 -41 16 -119 16 -158 -1z"/>
<path d="M2655 1701 c-113 -28 -187 -134 -171 -244 16 -103 112 -187 216 -187
30 0 65 9 99 26 190 95 138 378 -74 407 -22 3 -53 2 -70 -2z"/>
<path d="M8195 1664 c-167 -61 -183 -300 -26 -392 95 -56 220 -27 285 65 38
54 47 141 22 207 -41 108 -167 162 -281 120z"/>
<path d="M3665 1536 c-16 -7 -45 -28 -62 -46 -127 -130 -50 -348 129 -367 67
-7 118 8 164 50 57 49 77 99 72 178 -4 83 -39 140 -107 176 -51 26 -146 31
-196 9z"/>
<path d="M4783 1523 c-18 -7 -16 -30 4 -37 19 -8 34 10 26 31 -5 14 -10 15
-30 6z"/>
<path d="M4535 1501 c-166 -77 -167 -308 -1 -393 56 -28 158 -22 210 12 50 34
87 90 93 142 3 24 10 51 15 61 6 13 3 25 -12 44 -18 23 -19 28 -5 43 14 15 13
19 -4 34 -11 10 -25 15 -31 11 -6 -4 -21 2 -33 13 -55 52 -159 67 -232 33z"/>
<path d="M9674 1495 c-203 -102 -128 -405 100 -405 134 0 228 109 212 244 -17
146 -178 229 -312 161z"/>
<path d="M4997 1423 c-32 -11 -58 -29 -79 -55 -77 -98 -76 -207 3 -293 l40
-44 -43 -13 c-53 -16 -121 -81 -138 -133 -19 -58 -9 -146 23 -194 85 -128 279
-128 364 1 56 84 38 218 -38 282 -32 27 -30 30 20 41 21 4 52 25 81 54 83 83
89 193 17 288 -56 73 -155 99 -250 66z"/>
<path d="M8735 1428 c-102 -23 -171 -119 -163 -227 16 -220 309 -275 410 -78
29 58 23 159 -15 215 -48 73 -144 111 -232 90z"/>
<path d="M7646 1410 c-56 -28 -76 -48 -102 -105 -97 -207 148 -400 331 -261
122 94 102 291 -38 361 -63 31 -135 33 -191 5z"/>
<path d="M2987 1397 c-203 -66 -197 -359 9 -417 141 -40 284 78 272 224 -12
141 -150 236 -281 193z"/>
<path d="M4112 1317 c-49 -18 -100 -63 -123 -109 -32 -62 -24 -162 17 -220 44
-63 103 -93 185 -93 38 0 72 -5 81 -12 13 -11 10 -18 -21 -51 -87 -91 -80
-227 16 -313 60 -54 155 -68 235 -35 14 7 15 3 8 -30 -20 -87 32 -194 112
-233 58 -27 144 -28 197 -2 151 78 162 284 19 378 -35 24 -52 28 -107 28 -36
0 -78 -4 -93 -8 -26 -9 -26 -9 -18 29 14 63 -5 126 -56 182 l-43 49 20 19 c12
10 25 27 30 36 8 16 4 15 -33 -4 -36 -19 -59 -23 -135 -23 -50 0 -94 3 -98 7
-4 4 9 22 28 42 75 74 88 197 30 280 -53 77 -165 114 -251 83z"/>
<path d="M7058 1300 c-70 -37 -118 -119 -118 -202 0 -46 45 -133 84 -162 72
-54 170 -59 250 -12 147 86 131 315 -26 381 -52 21 -144 19 -190 -5z"/>
<path d="M5452 1276 c-96 -31 -152 -107 -152 -207 1 -151 136 -251 281 -207
178 53 203 311 39 395 -59 29 -115 36 -168 19z"/>
<path d="M6502 1239 c-206 -102 -134 -409 96 -409 141 0 246 130 211 263 -35
135 -185 206 -307 146z"/>
<path d="M5942 1219 c-129 -65 -160 -227 -65 -338 44 -52 104 -75 182 -69 202
15 270 283 99 395 -57 38 -154 44 -216 12z"/>
<path d="M9220 1195 c-46 -21 -87 -61 -112 -109 -31 -60 -23 -161 17 -218 40
-56 106 -89 176 -89 68 0 98 11 148 56 106 96 91 262 -30 342 -51 34 -145 42
-199 18z"/>
<path d="M8175 1184 c-79 -43 -125 -115 -125 -199 0 -230 306 -297 412 -91 30
58 23 159 -15 212 -45 65 -89 88 -171 92 -51 2 -79 -2 -101 -14z"/>
<path d="M3422 1171 c-140 -35 -208 -215 -126 -334 34 -49 119 -97 173 -97 86
0 164 48 202 123 30 58 24 158 -14 215 -47 72 -151 113 -235 93z"/>
<path d="M7336 938 c-57 -16 -128 -90 -145 -150 -39 -138 67 -278 209 -278
113 0 220 106 220 219 0 138 -148 247 -284 209z"/>
<path d="M8733 936 c-64 -21 -99 -51 -129 -111 -55 -113 -16 -231 95 -287 83
-42 165 -34 236 24 57 47 78 99 73 179 -3 56 -9 76 -34 111 -54 77 -154 112
-241 84z"/>
<path d="M3819 913 c-35 -19 -64 -43 -84 -71 -27 -39 -30 -51 -30 -121 0 -68
3 -83 27 -119 86 -129 280 -129 366 0 24 36 27 51 27 119 0 70 -3 82 -30 121
-37 53 -120 98 -180 98 -25 0 -62 -11 -96 -27z"/>
<path d="M7792 898 c-7 -7 -12 -21 -12 -32 1 -20 1 -20 20 3 12 13 26 21 35
17 16 -6 21 -36 5 -36 -14 0 -32 -38 -24 -51 8 -13 63 49 64 72 1 35 -61 54
-88 27z"/>
<path d="M5625 861 c-113 -28 -188 -136 -171 -243 10 -59 49 -122 92 -149 l36
-22 -33 -14 c-78 -33 -130 -113 -130 -199 0 -187 211 -287 351 -167 107 92
106 249 -1 335 l-39 31 45 26 c183 106 130 376 -80 404 -22 3 -53 2 -70 -2z"/>
<path d="M7686 849 c-27 -21 -33 -43 -16 -54 6 -3 15 6 20 20 7 17 16 25 28
23 17 -4 18 -10 6 -62 -10 -44 15 -29 32 19 13 37 13 41 -7 58 -27 22 -31 21
-63 -4z"/>
<path d="M6446 845 c-21 -16 -13 -35 15 -35 12 0 19 7 19 19 0 27 -12 32 -34
16z"/>
<path d="M6825 851 c-102 -25 -167 -107 -168 -210 -1 -163 160 -266 309 -197
78 36 124 110 124 198 0 87 -69 178 -154 203 -54 16 -65 17 -111 6z"/>
<path d="M7914 846 c-14 -11 -16 -18 -8 -26 8 -8 14 -7 23 4 14 17 41 11 41
-10 0 -7 -10 -19 -22 -25 -13 -7 -26 -17 -30 -23 -11 -17 3 -28 19 -14 8 7 25
17 37 23 30 15 32 50 4 69 -28 20 -39 20 -64 2z"/>
<path d="M6245 841 c-173 -44 -230 -250 -101 -369 l44 -41 -46 6 c-131 15
-242 -82 -242 -212 0 -164 170 -269 315 -195 69 36 108 95 113 170 6 79 -17
139 -68 183 l-39 33 57 -4 c117 -7 209 72 232 200 9 50 8 61 -7 84 -13 20 -14
29 -5 32 16 5 15 18 -4 41 -10 11 -23 17 -31 14 -7 -3 -21 1 -31 10 -46 40
-131 62 -187 48z"/>
<path d="M7812 768 c6 -18 28 -21 28 -4 0 9 -7 16 -16 16 -9 0 -14 -5 -12 -12z"/>
<path d="M8225 734 c-78 -29 -145 -123 -145 -205 0 -82 69 -177 148 -204 88
-29 157 -13 223 54 89 88 92 205 8 296 -63 68 -149 90 -234 59z"/>
<path d="M7737 734 c-8 -8 1 -24 14 -24 5 0 9 7 9 15 0 15 -12 20 -23 9z"/>
<path d="M7902 719 c2 -6 8 -10 13 -10 5 0 11 4 13 10 2 6 -4 11 -13 11 -9 0
-15 -5 -13 -11z"/>
<path d="M7756 698 c-23 -7 -58 -29 -86 -57 -204 -197 87 -502 295 -310 96 89
98 216 5 310 -62 62 -127 80 -214 57z"/>
<path d="M5122 577 c-123 -45 -176 -184 -117 -304 101 -202 406 -128 405 98
-1 153 -146 257 -288 206z"/>
<path d="M7173 467 c-66 -24 -120 -97 -129 -173 -16 -135 79 -243 215 -244
105 0 186 65 211 170 24 99 -44 224 -135 249 -51 14 -121 13 -162 -2z"/>
<path d="M6580 420 c-57 -21 -77 -40 -110 -100 -47 -90 -30 -189 44 -258 131
-121 338 -47 362 129 22 164 -137 288 -296 229z"/>
</g>
</svg>
